<?xml version="1.0" encoding="utf-8" standalone="no"?>
<!DOCTYPE svg PUBLIC "-//W3C//DTD SVG 1.1//EN"
  "http://www.w3.org/Graphics/SVG/1.1/DTD/svg11.dtd">
<svg xmlns:xlink="http://www.w3.org/1999/xlink" width="983.52pt" height="471.6pt" viewBox="0 0 983.52 471.6" xmlns="http://www.w3.org/2000/svg" version="1.1">
 <metadata>
  <rdf:RDF xmlns:dc="http://purl.org/dc/elements/1.1/" xmlns:cc="http://creativecommons.org/ns#" xmlns:rdf="http://www.w3.org/1999/02/22-rdf-syntax-ns#">
   <cc:Work>
    <dc:type rdf:resource="http://purl.org/dc/dcmitype/StillImage"/>
    <dc:date>2022-11-26T23:57:14.166090</dc:date>
    <dc:format>image/svg+xml</dc:format>
    <dc:creator>
     <cc:Agent>
      <dc:title>Matplotlib v3.6.2, https://matplotlib.org/</dc:title>
     </cc:Agent>
    </dc:creator>
   </cc:Work>
  </rdf:RDF>
 </metadata>
 <defs>
  <style type="text/css">*{stroke-linejoin: round; stroke-linecap: butt}</style>
 </defs>
 <g id="figure_1">
  <g id="patch_1">
   <path d="M 0 471.6 
L 983.52 471.6 
L 983.52 0 
L 0 0 
z
" style="fill: #ffffff"/>
  </g>
  <g id="axes_1">
   <g id="patch_2">
    <path d="M 122.94 300.473536 
L 885.168 300.473536 
L 885.168 175.842464 
L 122.94 175.842464 
z
" style="fill: #ffffff"/>
   </g>
   <g id="patch_3">
    <path d="M 814.8069 340.748065 
L 80.420981 281.997191 
" clip-path="url(#p45fed3c8e0)" style="fill: none; stroke: #444444; stroke-width: 2; stroke-linejoin: miter"/>
   </g>
   <g id="patch_4">
    <path d="M 814.8069 340.748065 
L 374.175349 281.997191 
" clip-path="url(#p45fed3c8e0)" style="fill: none; stroke: #444444; stroke-width: 2; stroke-linejoin: miter"/>
   </g>
   <g id="patch_5">
    <path d="M 814.8069 340.748065 
L 667.929716 281.997191 
" clip-path="url(#p45fed3c8e0)" style="fill: none; stroke: #444444; stroke-width: 2; stroke-linejoin: miter"/>
   </g>
   <g id="patch_6">
    <path d="M 814.8069 340.748065 
L 961.684084 281.997191 
" clip-path="url(#p45fed3c8e0)" style="fill: none; stroke: #444444; stroke-width: 2; stroke-linejoin: miter"/>
   </g>
   <g id="patch_7">
    <path d="M 814.8069 340.748065 
L 984.52 318.119651 
" clip-path="url(#p45fed3c8e0)" style="fill: none; stroke: #444444; stroke-width: 2; stroke-linejoin: miter"/>
   </g>
   <g id="patch_8">
    <path d="M 814.8069 340.748065 
L 984.52 327.171017 
" clip-path="url(#p45fed3c8e0)" style="fill: none; stroke: #444444; stroke-width: 2; stroke-linejoin: miter"/>
   </g>
   <g id="patch_9">
    <path d="M 80.420981 281.997191 
L -1 241.2867 
" clip-path="url(#p45fed3c8e0)" style="fill: none; stroke: #444444; stroke-width: 2; stroke-linejoin: miter"/>
   </g>
   <g id="patch_10">
    <path d="M 80.420981 281.997191 
L 21.670108 223.246318 
" clip-path="url(#p45fed3c8e0)" style="fill: none; stroke: #444444; stroke-width: 2; stroke-linejoin: miter"/>
   </g>
   <g id="patch_11">
    <path d="M 80.420981 281.997191 
L 80.420981 223.246318 
" clip-path="url(#p45fed3c8e0)" style="fill: none; stroke: #444444; stroke-width: 2; stroke-linejoin: miter"/>
   </g>
   <g id="patch_12">
    <path d="M 80.420981 281.997191 
L 139.171855 223.246318 
" clip-path="url(#p45fed3c8e0)" style="fill: none; stroke: #444444; stroke-width: 2; stroke-linejoin: miter"/>
   </g>
   <g id="patch_13">
    <path d="M 80.420981 281.997191 
L 197.922728 223.246318 
" clip-path="url(#p45fed3c8e0)" style="fill: none; stroke: #444444; stroke-width: 2; stroke-linejoin: miter"/>
   </g>
   <g id="patch_14">
    <path d="M 374.175349 281.997191 
L 256.673602 223.246318 
" clip-path="url(#p45fed3c8e0)" style="fill: none; stroke: #444444; stroke-width: 2; stroke-linejoin: miter"/>
   </g>
   <g id="patch_15">
    <path d="M 374.175349 281.997191 
L 315.424475 223.246318 
" clip-path="url(#p45fed3c8e0)" style="fill: none; stroke: #444444; stroke-width: 2; stroke-linejoin: miter"/>
   </g>
   <g id="patch_16">
    <path d="M 374.175349 281.997191 
L 374.175349 223.246318 
" clip-path="url(#p45fed3c8e0)" style="fill: none; stroke: #444444; stroke-width: 2; stroke-linejoin: miter"/>
   </g>
   <g id="patch_17">
    <path d="M 374.175349 281.997191 
L 432.926222 223.246318 
" clip-path="url(#p45fed3c8e0)" style="fill: none; stroke: #444444; stroke-width: 2; stroke-linejoin: miter"/>
   </g>
   <g id="patch_18">
    <path d="M 374.175349 281.997191 
L 491.677096 223.246318 
" clip-path="url(#p45fed3c8e0)" style="fill: none; stroke: #444444; stroke-width: 2; stroke-linejoin: miter"/>
   </g>
   <g id="patch_19">
    <path d="M 961.684084 281.997191 
L 844.182337 223.246318 
" clip-path="url(#p45fed3c8e0)" style="fill: none; stroke: #444444; stroke-width: 2; stroke-linejoin: miter"/>
   </g>
   <g id="patch_20">
    <path d="M 961.684084 281.997191 
L 902.93321 223.246318 
" clip-path="url(#p45fed3c8e0)" style="fill: none; stroke: #444444; stroke-width: 2; stroke-linejoin: miter"/>
   </g>
   <g id="patch_21">
    <path d="M 961.684084 281.997191 
L 961.684084 223.246318 
" clip-path="url(#p45fed3c8e0)" style="fill: none; stroke: #444444; stroke-width: 2; stroke-linejoin: miter"/>
   </g>
   <g id="patch_22">
    <path d="M 961.684084 281.997191 
L 984.52 259.161275 
" clip-path="url(#p45fed3c8e0)" style="fill: none; stroke: #444444; stroke-width: 2; stroke-linejoin: miter"/>
   </g>
   <g id="patch_23">
    <path d="M 961.684084 281.997191 
L 984.52 270.579233 
" clip-path="url(#p45fed3c8e0)" style="fill: none; stroke: #444444; stroke-width: 2; stroke-linejoin: miter"/>
   </g>
   <g id="patch_24">
    <path clip-path="url(#p45fed3c8e0)" style="fill: none; stroke: #444444; stroke-width: 2; stroke-linejoin: miter"/>
   </g>
   <g id="patch_25">
    <path clip-path="url(#p45fed3c8e0)" style="fill: none; stroke: #444444; stroke-width: 2; stroke-linejoin: miter"/>
   </g>
   <g id="patch_26">
    <path clip-path="url(#p45fed3c8e0)" style="fill: none; stroke: #444444; stroke-width: 2; stroke-linejoin: miter"/>
   </g>
   <g id="patch_27">
    <path clip-path="url(#p45fed3c8e0)" style="fill: none; stroke: #444444; stroke-width: 2; stroke-linejoin: miter"/>
   </g>
   <g id="patch_28">
    <path clip-path="url(#p45fed3c8e0)" style="fill: none; stroke: #444444; stroke-width: 2; stroke-linejoin: miter"/>
   </g>
   <g id="patch_29">
    <path d="M 667.929716 281.997191 
L 550.427969 223.246318 
" clip-path="url(#p45fed3c8e0)" style="fill: none; stroke: #444444; stroke-width: 2; stroke-linejoin: miter"/>
   </g>
   <g id="patch_30">
    <path d="M 667.929716 281.997191 
L 609.178843 223.246318 
" clip-path="url(#p45fed3c8e0)" style="fill: none; stroke: #444444; stroke-width: 2; stroke-linejoin: miter"/>
   </g>
   <g id="patch_31">
    <path d="M 667.929716 281.997191 
L 667.929716 223.246318 
" clip-path="url(#p45fed3c8e0)" style="fill: none; stroke: #444444; stroke-width: 2; stroke-linejoin: miter"/>
   </g>
   <g id="patch_32">
    <path d="M 667.929716 281.997191 
L 726.68059 223.246318 
" clip-path="url(#p45fed3c8e0)" style="fill: none; stroke: #444444; stroke-width: 2; stroke-linejoin: miter"/>
   </g>
   <g id="patch_33">
    <path d="M 667.929716 281.997191 
L 785.431463 223.246318 
" clip-path="url(#p45fed3c8e0)" style="fill: none; stroke: #444444; stroke-width: 2; stroke-linejoin: miter"/>
   </g>
   <g id="patch_34">
    <path clip-path="url(#p45fed3c8e0)" style="fill: none; stroke: #444444; stroke-width: 2; stroke-linejoin: miter"/>
   </g>
   <g id="patch_35">
    <path clip-path="url(#p45fed3c8e0)" style="fill: none; stroke: #444444; stroke-width: 2; stroke-linejoin: miter"/>
   </g>
   <g id="patch_36">
    <path clip-path="url(#p45fed3c8e0)" style="fill: none; stroke: #444444; stroke-width: 2; stroke-linejoin: miter"/>
   </g>
   <g id="patch_37">
    <path clip-path="url(#p45fed3c8e0)" style="fill: none; stroke: #444444; stroke-width: 2; stroke-linejoin: miter"/>
   </g>
   <g id="patch_38">
    <path clip-path="url(#p45fed3c8e0)" style="fill: none; stroke: #444444; stroke-width: 2; stroke-linejoin: miter"/>
   </g>
   <g id="matplotlib.axis_1"/>
   <g id="matplotlib.axis_2"/>
   <g id="patch_39">
    <path d="M 814.8069 364.248414 
C 821.039266 364.248414 827.017209 361.772269 831.424156 357.365321 
C 835.831104 352.958373 838.307249 346.98043 838.307249 340.748065 
C 838.307249 334.515699 835.831104 328.537756 831.424156 324.130808 
C 827.017209 319.72386 821.039266 317.247715 814.8069 317.247715 
C 808.574534 317.247715 802.596591 319.72386 798.189644 324.130808 
C 793.782696 328.537756 791.306551 334.515699 791.306551 340.748065 
C 791.306551 346.98043 793.782696 352.958373 798.189644 357.365321 
C 802.596591 361.772269 808.574534 364.248414 814.8069 364.248414 
z
" clip-path="url(#p45fed3c8e0)" style="fill: #ff0000; stroke: #000000; stroke-linejoin: miter"/>
   </g>
   <g id="patch_40">
    <path d="M 80.420981 305.49754 
C 86.653347 305.49754 92.63129 303.021395 97.038238 298.614447 
C 101.445186 294.2075 103.921331 288.229557 103.921331 281.997191 
C 103.921331 275.764826 101.445186 269.786883 97.038238 265.379935 
C 92.63129 260.972987 86.653347 258.496842 80.420981 258.496842 
C 74.188616 258.496842 68.210673 260.972987 63.803725 265.379935 
C 59.396777 269.786883 56.920632 275.764826 56.920632 281.997191 
C 56.920632 288.229557 59.396777 294.2075 63.803725 298.614447 
C 68.210673 303.021395 74.188616 305.49754 80.420981 305.49754 
z
" clip-path="url(#p45fed3c8e0)" style="fill: #ff0000; stroke: #000000; stroke-linejoin: miter"/>
   </g>
   <g id="patch_41">
    <path d="M 374.175349 305.49754 
C 380.407714 305.49754 386.385657 303.021395 390.792605 298.614447 
C 395.199553 294.2075 397.675698 288.229557 397.675698 281.997191 
C 397.675698 275.764826 395.199553 269.786883 390.792605 265.379935 
C 386.385657 260.972987 380.407714 258.496842 374.175349 258.496842 
C 367.942983 258.496842 361.96504 260.972987 357.558092 265.379935 
C 353.151145 269.786883 350.674999 275.764826 350.674999 281.997191 
C 350.674999 288.229557 353.151145 294.2075 357.558092 298.614447 
C 361.96504 303.021395 367.942983 305.49754 374.175349 305.49754 
z
" clip-path="url(#p45fed3c8e0)" style="fill: #ff0000; stroke: #000000; stroke-linejoin: miter"/>
   </g>
   <g id="patch_42">
    <path d="M 667.929716 305.49754 
C 674.162082 305.49754 680.140025 303.021395 684.546973 298.614447 
C 688.953921 294.2075 691.430066 288.229557 691.430066 281.997191 
C 691.430066 275.764826 688.953921 269.786883 684.546973 265.379935 
C 680.140025 260.972987 674.162082 258.496842 667.929716 258.496842 
C 661.697351 258.496842 655.719408 260.972987 651.31246 265.379935 
C 646.905512 269.786883 644.429367 275.764826 644.429367 281.997191 
C 644.429367 288.229557 646.905512 294.2075 651.31246 298.614447 
C 655.719408 303.021395 661.697351 305.49754 667.929716 305.49754 
z
" clip-path="url(#p45fed3c8e0)" style="fill: #ff0000; stroke: #000000; stroke-linejoin: miter"/>
   </g>
   <g id="patch_43">
    <path d="M 961.684084 305.49754 
C 967.916449 305.49754 973.894392 303.021395 978.30134 298.614447 
C 982.708288 294.2075 985.184433 288.229557 985.184433 281.997191 
C 985.184433 275.764826 982.708288 269.786883 978.30134 265.379935 
C 973.894392 260.972987 967.916449 258.496842 961.684084 258.496842 
C 955.451718 258.496842 949.473775 260.972987 945.066827 265.379935 
C 940.659879 269.786883 938.183734 275.764826 938.183734 281.997191 
C 938.183734 288.229557 940.659879 294.2075 945.066827 298.614447 
C 949.473775 303.021395 955.451718 305.49754 961.684084 305.49754 
z
" clip-path="url(#p45fed3c8e0)" style="fill: #ff0000; stroke: #000000; stroke-linejoin: miter"/>
   </g>
   <g id="patch_44">
    <path d="M 1255.438451 305.49754 
C 1261.670817 305.49754 1267.64876 303.021395 1272.055708 298.614447 
C 1276.462655 294.2075 1278.938801 288.229557 1278.938801 281.997191 
C 1278.938801 275.764826 1276.462655 269.786883 1272.055708 265.379935 
C 1267.64876 260.972987 1261.670817 258.496842 1255.438451 258.496842 
C 1249.206086 258.496842 1243.228143 260.972987 1238.821195 265.379935 
C 1234.414247 269.786883 1231.938102 275.764826 1231.938102 281.997191 
C 1231.938102 288.229557 1234.414247 294.2075 1238.821195 298.614447 
C 1243.228143 303.021395 1249.206086 305.49754 1255.438451 305.49754 
z
" clip-path="url(#p45fed3c8e0)" style="fill: #ff0000; stroke: #000000; stroke-linejoin: miter"/>
   </g>
   <g id="patch_45">
    <path d="M 1549.192819 305.49754 
C 1555.425184 305.49754 1561.403127 303.021395 1565.810075 298.614447 
C 1570.217023 294.2075 1572.693168 288.229557 1572.693168 281.997191 
C 1572.693168 275.764826 1570.217023 269.786883 1565.810075 265.379935 
C 1561.403127 260.972987 1555.425184 258.496842 1549.192819 258.496842 
C 1542.960453 258.496842 1536.98251 260.972987 1532.575562 265.379935 
C 1528.168614 269.786883 1525.692469 275.764826 1525.692469 281.997191 
C 1525.692469 288.229557 1528.168614 294.2075 1532.575562 298.614447 
C 1536.98251 303.021395 1542.960453 305.49754 1549.192819 305.49754 
z
" clip-path="url(#p45fed3c8e0)" style="fill: #ff0000; stroke: #000000; stroke-linejoin: miter"/>
   </g>
   <g id="patch_46">
    <path d="M -37.080766 246.746667 
C -30.8484 246.746667 -24.870457 244.270522 -20.463509 239.863574 
C -16.056561 235.456626 -13.580416 229.478683 -13.580416 223.246318 
C -13.580416 217.013952 -16.056561 211.036009 -20.463509 206.629061 
C -24.870457 202.222113 -30.8484 199.745968 -37.080766 199.745968 
C -43.313131 199.745968 -49.291074 202.222113 -53.698022 206.629061 
C -58.10497 211.036009 -60.581115 217.013952 -60.581115 223.246318 
C -60.581115 229.478683 -58.10497 235.456626 -53.698022 239.863574 
C -49.291074 244.270522 -43.313131 246.746667 -37.080766 246.746667 
z
" clip-path="url(#p45fed3c8e0)" style="fill: #ff0000; stroke: #000000; stroke-linejoin: miter"/>
   </g>
   <g id="patch_47">
    <path d="M 21.670108 246.746667 
C 27.902473 246.746667 33.880416 244.270522 38.287364 239.863574 
C 42.694312 235.456626 45.170457 229.478683 45.170457 223.246318 
C 45.170457 217.013952 42.694312 211.036009 38.287364 206.629061 
C 33.880416 202.222113 27.902473 199.745968 21.670108 199.745968 
C 15.437742 199.745968 9.459799 202.222113 5.052851 206.629061 
C 0.645904 211.036009 -1.830241 217.013952 -1.830241 223.246318 
C -1.830241 229.478683 0.645904 235.456626 5.052851 239.863574 
C 9.459799 244.270522 15.437742 246.746667 21.670108 246.746667 
z
" clip-path="url(#p45fed3c8e0)" style="fill: #ff0000; stroke: #000000; stroke-linejoin: miter"/>
   </g>
   <g id="patch_48">
    <path d="M 80.420981 246.746667 
C 86.653347 246.746667 92.63129 244.270522 97.038238 239.863574 
C 101.445186 235.456626 103.921331 229.478683 103.921331 223.246318 
C 103.921331 217.013952 101.445186 211.036009 97.038238 206.629061 
C 92.63129 202.222113 86.653347 199.745968 80.420981 199.745968 
C 74.188616 199.745968 68.210673 202.222113 63.803725 206.629061 
C 59.396777 211.036009 56.920632 217.013952 56.920632 223.246318 
C 56.920632 229.478683 59.396777 235.456626 63.803725 239.863574 
C 68.210673 244.270522 74.188616 246.746667 80.420981 246.746667 
z
" clip-path="url(#p45fed3c8e0)" style="fill: #ff0000; stroke: #000000; stroke-linejoin: miter"/>
   </g>
   <g id="patch_49">
    <path d="M 139.171855 246.746667 
C 145.40422 246.746667 151.382163 244.270522 155.789111 239.863574 
C 160.196059 235.456626 162.672204 229.478683 162.672204 223.246318 
C 162.672204 217.013952 160.196059 211.036009 155.789111 206.629061 
C 151.382163 202.222113 145.40422 199.745968 139.171855 199.745968 
C 132.939489 199.745968 126.961546 202.222113 122.554598 206.629061 
C 118.147651 211.036009 115.671505 217.013952 115.671505 223.246318 
C 115.671505 229.478683 118.147651 235.456626 122.554598 239.863574 
C 126.961546 244.270522 132.939489 246.746667 139.171855 246.746667 
z
" clip-path="url(#p45fed3c8e0)" style="fill: #ff0000; stroke: #000000; stroke-linejoin: miter"/>
   </g>
   <g id="patch_50">
    <path d="M 197.922728 246.746667 
C 204.155094 246.746667 210.133037 244.270522 214.539985 239.863574 
C 218.946933 235.456626 221.423078 229.478683 221.423078 223.246318 
C 221.423078 217.013952 218.946933 211.036009 214.539985 206.629061 
C 210.133037 202.222113 204.155094 199.745968 197.922728 199.745968 
C 191.690363 199.745968 185.71242 202.222113 181.305472 206.629061 
C 176.898524 211.036009 174.422379 217.013952 174.422379 223.246318 
C 174.422379 229.478683 176.898524 235.456626 181.305472 239.863574 
C 185.71242 244.270522 191.690363 246.746667 197.922728 246.746667 
z
" clip-path="url(#p45fed3c8e0)" style="fill: #ff0000; stroke: #000000; stroke-linejoin: miter"/>
   </g>
   <g id="patch_51">
    <path d="M 256.673602 246.746667 
C 262.905967 246.746667 268.88391 244.270522 273.290858 239.863574 
C 277.697806 235.456626 280.173951 229.478683 280.173951 223.246318 
C 280.173951 217.013952 277.697806 211.036009 273.290858 206.629061 
C 268.88391 202.222113 262.905967 199.745968 256.673602 199.745968 
C 250.441236 199.745968 244.463293 202.222113 240.056345 206.629061 
C 235.649398 211.036009 233.173252 217.013952 233.173252 223.246318 
C 233.173252 229.478683 235.649398 235.456626 240.056345 239.863574 
C 244.463293 244.270522 250.441236 246.746667 256.673602 246.746667 
z
" clip-path="url(#p45fed3c8e0)" style="fill: #ff0000; stroke: #000000; stroke-linejoin: miter"/>
   </g>
   <g id="patch_52">
    <path d="M 315.424475 246.746667 
C 321.656841 246.746667 327.634784 244.270522 332.041732 239.863574 
C 336.44868 235.456626 338.924825 229.478683 338.924825 223.246318 
C 338.924825 217.013952 336.44868 211.036009 332.041732 206.629061 
C 327.634784 202.222113 321.656841 199.745968 315.424475 199.745968 
C 309.19211 199.745968 303.214167 202.222113 298.807219 206.629061 
C 294.400271 211.036009 291.924126 217.013952 291.924126 223.246318 
C 291.924126 229.478683 294.400271 235.456626 298.807219 239.863574 
C 303.214167 244.270522 309.19211 246.746667 315.424475 246.746667 
z
" clip-path="url(#p45fed3c8e0)" style="fill: #ff0000; stroke: #000000; stroke-linejoin: miter"/>
   </g>
   <g id="patch_53">
    <path d="M 374.175349 246.746667 
C 380.407714 246.746667 386.385657 244.270522 390.792605 239.863574 
C 395.199553 235.456626 397.675698 229.478683 397.675698 223.246318 
C 397.675698 217.013952 395.199553 211.036009 390.792605 206.629061 
C 386.385657 202.222113 380.407714 199.745968 374.175349 199.745968 
C 367.942983 199.745968 361.96504 202.222113 357.558092 206.629061 
C 353.151145 211.036009 350.674999 217.013952 350.674999 223.246318 
C 350.674999 229.478683 353.151145 235.456626 357.558092 239.863574 
C 361.96504 244.270522 367.942983 246.746667 374.175349 246.746667 
z
" clip-path="url(#p45fed3c8e0)" style="fill: #ff0000; stroke: #000000; stroke-linejoin: miter"/>
   </g>
   <g id="patch_54">
    <path d="M 432.926222 246.746667 
C 439.158588 246.746667 445.136531 244.270522 449.543479 239.863574 
C 453.950427 235.456626 456.426572 229.478683 456.426572 223.246318 
C 456.426572 217.013952 453.950427 211.036009 449.543479 206.629061 
C 445.136531 202.222113 439.158588 199.745968 432.926222 199.745968 
C 426.693857 199.745968 420.715914 202.222113 416.308966 206.629061 
C 411.902018 211.036009 409.425873 217.013952 409.425873 223.246318 
C 409.425873 229.478683 411.902018 235.456626 416.308966 239.863574 
C 420.715914 244.270522 426.693857 246.746667 432.926222 246.746667 
z
" clip-path="url(#p45fed3c8e0)" style="fill: #ff0000; stroke: #000000; stroke-linejoin: miter"/>
   </g>
   <g id="patch_55">
    <path d="M 491.677096 246.746667 
C 497.909461 246.746667 503.887404 244.270522 508.294352 239.863574 
C 512.7013 235.456626 515.177445 229.478683 515.177445 223.246318 
C 515.177445 217.013952 512.7013 211.036009 508.294352 206.629061 
C 503.887404 202.222113 497.909461 199.745968 491.677096 199.745968 
C 485.44473 199.745968 479.466787 202.222113 475.059839 206.629061 
C 470.652891 211.036009 468.176746 217.013952 468.176746 223.246318 
C 468.176746 229.478683 470.652891 235.456626 475.059839 239.863574 
C 479.466787 244.270522 485.44473 246.746667 491.677096 246.746667 
z
" clip-path="url(#p45fed3c8e0)" style="fill: #ff0000; stroke: #000000; stroke-linejoin: miter"/>
   </g>
   <g id="patch_56">
    <path d="M 844.182337 246.746667 
C 850.414702 246.746667 856.392645 244.270522 860.799593 239.863574 
C 865.206541 235.456626 867.682686 229.478683 867.682686 223.246318 
C 867.682686 217.013952 865.206541 211.036009 860.799593 206.629061 
C 856.392645 202.222113 850.414702 199.745968 844.182337 199.745968 
C 837.949971 199.745968 831.972028 202.222113 827.56508 206.629061 
C 823.158132 211.036009 820.681987 217.013952 820.681987 223.246318 
C 820.681987 229.478683 823.158132 235.456626 827.56508 239.863574 
C 831.972028 244.270522 837.949971 246.746667 844.182337 246.746667 
z
" clip-path="url(#p45fed3c8e0)" style="fill: #ff0000; stroke: #000000; stroke-linejoin: miter"/>
   </g>
   <g id="patch_57">
    <path d="M 902.93321 246.746667 
C 909.165576 246.746667 915.143519 244.270522 919.550467 239.863574 
C 923.957415 235.456626 926.43356 229.478683 926.43356 223.246318 
C 926.43356 217.013952 923.957415 211.036009 919.550467 206.629061 
C 915.143519 202.222113 909.165576 199.745968 902.93321 199.745968 
C 896.700845 199.745968 890.722902 202.222113 886.315954 206.629061 
C 881.909006 211.036009 879.432861 217.013952 879.432861 223.246318 
C 879.432861 229.478683 881.909006 235.456626 886.315954 239.863574 
C 890.722902 244.270522 896.700845 246.746667 902.93321 246.746667 
z
" clip-path="url(#p45fed3c8e0)" style="fill: #ff0000; stroke: #000000; stroke-linejoin: miter"/>
   </g>
   <g id="patch_58">
    <path d="M 961.684084 246.746667 
C 967.916449 246.746667 973.894392 244.270522 978.30134 239.863574 
C 982.708288 235.456626 985.184433 229.478683 985.184433 223.246318 
C 985.184433 217.013952 982.708288 211.036009 978.30134 206.629061 
C 973.894392 202.222113 967.916449 199.745968 961.684084 199.745968 
C 955.451718 199.745968 949.473775 202.222113 945.066827 206.629061 
C 940.659879 211.036009 938.183734 217.013952 938.183734 223.246318 
C 938.183734 229.478683 940.659879 235.456626 945.066827 239.863574 
C 949.473775 244.270522 955.451718 246.746667 961.684084 246.746667 
z
" clip-path="url(#p45fed3c8e0)" style="fill: #ff0000; stroke: #000000; stroke-linejoin: miter"/>
   </g>
   <g id="patch_59">
    <path d="M 1020.434957 246.746667 
C 1026.667323 246.746667 1032.645266 244.270522 1037.052214 239.863574 
C 1041.459162 235.456626 1043.935307 229.478683 1043.935307 223.246318 
C 1043.935307 217.013952 1041.459162 211.036009 1037.052214 206.629061 
C 1032.645266 202.222113 1026.667323 199.745968 1020.434957 199.745968 
C 1014.202592 199.745968 1008.224649 202.222113 1003.817701 206.629061 
C 999.410753 211.036009 996.934608 217.013952 996.934608 223.246318 
C 996.934608 229.478683 999.410753 235.456626 1003.817701 239.863574 
C 1008.224649 244.270522 1014.202592 246.746667 1020.434957 246.746667 
z
" clip-path="url(#p45fed3c8e0)" style="fill: #ff0000; stroke: #000000; stroke-linejoin: miter"/>
   </g>
   <g id="patch_60">
    <path d="M 1079.185831 246.746667 
C 1085.418196 246.746667 1091.396139 244.270522 1095.803087 239.863574 
C 1100.210035 235.456626 1102.68618 229.478683 1102.68618 223.246318 
C 1102.68618 217.013952 1100.210035 211.036009 1095.803087 206.629061 
C 1091.396139 202.222113 1085.418196 199.745968 1079.185831 199.745968 
C 1072.953465 199.745968 1066.975522 202.222113 1062.568574 206.629061 
C 1058.161626 211.036009 1055.685481 217.013952 1055.685481 223.246318 
C 1055.685481 229.478683 1058.161626 235.456626 1062.568574 239.863574 
C 1066.975522 244.270522 1072.953465 246.746667 1079.185831 246.746667 
z
" clip-path="url(#p45fed3c8e0)" style="fill: #ff0000; stroke: #000000; stroke-linejoin: miter"/>
   </g>
   <g id="patch_61">
    <path d="M 1137.936704 246.746667 
C 1144.16907 246.746667 1150.147013 244.270522 1154.553961 239.863574 
C 1158.960909 235.456626 1161.437054 229.478683 1161.437054 223.246318 
C 1161.437054 217.013952 1158.960909 211.036009 1154.553961 206.629061 
C 1150.147013 202.222113 1144.16907 199.745968 1137.936704 199.745968 
C 1131.704339 199.745968 1125.726396 202.222113 1121.319448 206.629061 
C 1116.9125 211.036009 1114.436355 217.013952 1114.436355 223.246318 
C 1114.436355 229.478683 1116.9125 235.456626 1121.319448 239.863574 
C 1125.726396 244.270522 1131.704339 246.746667 1137.936704 246.746667 
z
" clip-path="url(#p45fed3c8e0)" style="fill: #ff0000; stroke: #000000; stroke-linejoin: miter"/>
   </g>
   <g id="patch_62">
    <path d="M 1196.687578 246.746667 
C 1202.919943 246.746667 1208.897886 244.270522 1213.304834 239.863574 
C 1217.711782 235.456626 1220.187927 229.478683 1220.187927 223.246318 
C 1220.187927 217.013952 1217.711782 211.036009 1213.304834 206.629061 
C 1208.897886 202.222113 1202.919943 199.745968 1196.687578 199.745968 
C 1190.455212 199.745968 1184.477269 202.222113 1180.070321 206.629061 
C 1175.663373 211.036009 1173.187228 217.013952 1173.187228 223.246318 
C 1173.187228 229.478683 1175.663373 235.456626 1180.070321 239.863574 
C 1184.477269 244.270522 1190.455212 246.746667 1196.687578 246.746667 
z
" clip-path="url(#p45fed3c8e0)" style="fill: #ff0000; stroke: #000000; stroke-linejoin: miter"/>
   </g>
   <g id="patch_63">
    <path d="M 1255.438451 246.746667 
C 1261.670817 246.746667 1267.64876 244.270522 1272.055708 239.863574 
C 1276.462655 235.456626 1278.938801 229.478683 1278.938801 223.246318 
C 1278.938801 217.013952 1276.462655 211.036009 1272.055708 206.629061 
C 1267.64876 202.222113 1261.670817 199.745968 1255.438451 199.745968 
C 1249.206086 199.745968 1243.228143 202.222113 1238.821195 206.629061 
C 1234.414247 211.036009 1231.938102 217.013952 1231.938102 223.246318 
C 1231.938102 229.478683 1234.414247 235.456626 1238.821195 239.863574 
C 1243.228143 244.270522 1249.206086 246.746667 1255.438451 246.746667 
z
" clip-path="url(#p45fed3c8e0)" style="fill: #ff0000; stroke: #000000; stroke-linejoin: miter"/>
   </g>
   <g id="patch_64">
    <path d="M 1314.189325 246.746667 
C 1320.42169 246.746667 1326.399633 244.270522 1330.806581 239.863574 
C 1335.213529 235.456626 1337.689674 229.478683 1337.689674 223.246318 
C 1337.689674 217.013952 1335.213529 211.036009 1330.806581 206.629061 
C 1326.399633 202.222113 1320.42169 199.745968 1314.189325 199.745968 
C 1307.956959 199.745968 1301.979016 202.222113 1297.572068 206.629061 
C 1293.16512 211.036009 1290.688975 217.013952 1290.688975 223.246318 
C 1290.688975 229.478683 1293.16512 235.456626 1297.572068 239.863574 
C 1301.979016 244.270522 1307.956959 246.746667 1314.189325 246.746667 
z
" clip-path="url(#p45fed3c8e0)" style="fill: #ff0000; stroke: #000000; stroke-linejoin: miter"/>
   </g>
   <g id="patch_65">
    <path d="M 1372.940198 246.746667 
C 1379.172564 246.746667 1385.150507 244.270522 1389.557455 239.863574 
C 1393.964402 235.456626 1396.440548 229.478683 1396.440548 223.246318 
C 1396.440548 217.013952 1393.964402 211.036009 1389.557455 206.629061 
C 1385.150507 202.222113 1379.172564 199.745968 1372.940198 199.745968 
C 1366.707833 199.745968 1360.72989 202.222113 1356.322942 206.629061 
C 1351.915994 211.036009 1349.439849 217.013952 1349.439849 223.246318 
C 1349.439849 229.478683 1351.915994 235.456626 1356.322942 239.863574 
C 1360.72989 244.270522 1366.707833 246.746667 1372.940198 246.746667 
z
" clip-path="url(#p45fed3c8e0)" style="fill: #ff0000; stroke: #000000; stroke-linejoin: miter"/>
   </g>
   <g id="patch_66">
    <path d="M 550.427969 246.746667 
C 556.660335 246.746667 562.638278 244.270522 567.045226 239.863574 
C 571.452174 235.456626 573.928319 229.478683 573.928319 223.246318 
C 573.928319 217.013952 571.452174 211.036009 567.045226 206.629061 
C 562.638278 202.222113 556.660335 199.745968 550.427969 199.745968 
C 544.195604 199.745968 538.217661 202.222113 533.810713 206.629061 
C 529.403765 211.036009 526.92762 217.013952 526.92762 223.246318 
C 526.92762 229.478683 529.403765 235.456626 533.810713 239.863574 
C 538.217661 244.270522 544.195604 246.746667 550.427969 246.746667 
z
" clip-path="url(#p45fed3c8e0)" style="fill: #ff0000; stroke: #000000; stroke-linejoin: miter"/>
   </g>
   <g id="patch_67">
    <path d="M 609.178843 246.746667 
C 615.411208 246.746667 621.389151 244.270522 625.796099 239.863574 
C 630.203047 235.456626 632.679192 229.478683 632.679192 223.246318 
C 632.679192 217.013952 630.203047 211.036009 625.796099 206.629061 
C 621.389151 202.222113 615.411208 199.745968 609.178843 199.745968 
C 602.946477 199.745968 596.968534 202.222113 592.561586 206.629061 
C 588.154638 211.036009 585.678493 217.013952 585.678493 223.246318 
C 585.678493 229.478683 588.154638 235.456626 592.561586 239.863574 
C 596.968534 244.270522 602.946477 246.746667 609.178843 246.746667 
z
" clip-path="url(#p45fed3c8e0)" style="fill: #ff0000; stroke: #000000; stroke-linejoin: miter"/>
   </g>
   <g id="patch_68">
    <path d="M 667.929716 246.746667 
C 674.162082 246.746667 680.140025 244.270522 684.546973 239.863574 
C 688.953921 235.456626 691.430066 229.478683 691.430066 223.246318 
C 691.430066 217.013952 688.953921 211.036009 684.546973 206.629061 
C 680.140025 202.222113 674.162082 199.745968 667.929716 199.745968 
C 661.697351 199.745968 655.719408 202.222113 651.31246 206.629061 
C 646.905512 211.036009 644.429367 217.013952 644.429367 223.246318 
C 644.429367 229.478683 646.905512 235.456626 651.31246 239.863574 
C 655.719408 244.270522 661.697351 246.746667 667.929716 246.746667 
z
" clip-path="url(#p45fed3c8e0)" style="fill: #ff0000; stroke: #000000; stroke-linejoin: miter"/>
   </g>
   <g id="patch_69">
    <path d="M 726.68059 246.746667 
C 732.912955 246.746667 738.890898 244.270522 743.297846 239.863574 
C 747.704794 235.456626 750.180939 229.478683 750.180939 223.246318 
C 750.180939 217.013952 747.704794 211.036009 743.297846 206.629061 
C 738.890898 202.222113 732.912955 199.745968 726.68059 199.745968 
C 720.448224 199.745968 714.470281 202.222113 710.063333 206.629061 
C 705.656385 211.036009 703.18024 217.013952 703.18024 223.246318 
C 703.18024 229.478683 705.656385 235.456626 710.063333 239.863574 
C 714.470281 244.270522 720.448224 246.746667 726.68059 246.746667 
z
" clip-path="url(#p45fed3c8e0)" style="fill: #ff0000; stroke: #000000; stroke-linejoin: miter"/>
   </g>
   <g id="patch_70">
    <path d="M 785.431463 246.746667 
C 791.663829 246.746667 797.641772 244.270522 802.04872 239.863574 
C 806.455668 235.456626 808.931813 229.478683 808.931813 223.246318 
C 808.931813 217.013952 806.455668 211.036009 802.04872 206.629061 
C 797.641772 202.222113 791.663829 199.745968 785.431463 199.745968 
C 779.199098 199.745968 773.221155 202.222113 768.814207 206.629061 
C 764.407259 211.036009 761.931114 217.013952 761.931114 223.246318 
C 761.931114 229.478683 764.407259 235.456626 768.814207 239.863574 
C 773.221155 244.270522 779.199098 246.746667 785.431463 246.746667 
z
" clip-path="url(#p45fed3c8e0)" style="fill: #ff0000; stroke: #000000; stroke-linejoin: miter"/>
   </g>
   <g id="patch_71">
    <path d="M 1431.691072 246.746667 
C 1437.923437 246.746667 1443.90138 244.270522 1448.308328 239.863574 
C 1452.715276 235.456626 1455.191421 229.478683 1455.191421 223.246318 
C 1455.191421 217.013952 1452.715276 211.036009 1448.308328 206.629061 
C 1443.90138 202.222113 1437.923437 199.745968 1431.691072 199.745968 
C 1425.458706 199.745968 1419.480763 202.222113 1415.073815 206.629061 
C 1410.666867 211.036009 1408.190722 217.013952 1408.190722 223.246318 
C 1408.190722 229.478683 1410.666867 235.456626 1415.073815 239.863574 
C 1419.480763 244.270522 1425.458706 246.746667 1431.691072 246.746667 
z
" clip-path="url(#p45fed3c8e0)" style="fill: #ff0000; stroke: #000000; stroke-linejoin: miter"/>
   </g>
   <g id="patch_72">
    <path d="M 1490.441945 246.746667 
C 1496.674311 246.746667 1502.652254 244.270522 1507.059202 239.863574 
C 1511.466149 235.456626 1513.942295 229.478683 1513.942295 223.246318 
C 1513.942295 217.013952 1511.466149 211.036009 1507.059202 206.629061 
C 1502.652254 202.222113 1496.674311 199.745968 1490.441945 199.745968 
C 1484.20958 199.745968 1478.231637 202.222113 1473.824689 206.629061 
C 1469.417741 211.036009 1466.941596 217.013952 1466.941596 223.246318 
C 1466.941596 229.478683 1469.417741 235.456626 1473.824689 239.863574 
C 1478.231637 244.270522 1484.20958 246.746667 1490.441945 246.746667 
z
" clip-path="url(#p45fed3c8e0)" style="fill: #ff0000; stroke: #000000; stroke-linejoin: miter"/>
   </g>
   <g id="patch_73">
    <path d="M 1549.192819 246.746667 
C 1555.425184 246.746667 1561.403127 244.270522 1565.810075 239.863574 
C 1570.217023 235.456626 1572.693168 229.478683 1572.693168 223.246318 
C 1572.693168 217.013952 1570.217023 211.036009 1565.810075 206.629061 
C 1561.403127 202.222113 1555.425184 199.745968 1549.192819 199.745968 
C 1542.960453 199.745968 1536.98251 202.222113 1532.575562 206.629061 
C 1528.168614 211.036009 1525.692469 217.013952 1525.692469 223.246318 
C 1525.692469 229.478683 1528.168614 235.456626 1532.575562 239.863574 
C 1536.98251 244.270522 1542.960453 246.746667 1549.192819 246.746667 
z
" clip-path="url(#p45fed3c8e0)" style="fill: #ff0000; stroke: #000000; stroke-linejoin: miter"/>
   </g>
   <g id="patch_74">
    <path d="M 1607.943692 246.746667 
C 1614.176058 246.746667 1620.154001 244.270522 1624.560949 239.863574 
C 1628.967896 235.456626 1631.444041 229.478683 1631.444041 223.246318 
C 1631.444041 217.013952 1628.967896 211.036009 1624.560949 206.629061 
C 1620.154001 202.222113 1614.176058 199.745968 1607.943692 199.745968 
C 1601.711327 199.745968 1595.733384 202.222113 1591.326436 206.629061 
C 1586.919488 211.036009 1584.443343 217.013952 1584.443343 223.246318 
C 1584.443343 229.478683 1586.919488 235.456626 1591.326436 239.863574 
C 1595.733384 244.270522 1601.711327 246.746667 1607.943692 246.746667 
z
" clip-path="url(#p45fed3c8e0)" style="fill: #ff0000; stroke: #000000; stroke-linejoin: miter"/>
   </g>
   <g id="patch_75">
    <path d="M 1666.694566 246.746667 
C 1672.926931 246.746667 1678.904874 244.270522 1683.311822 239.863574 
C 1687.71877 235.456626 1690.194915 229.478683 1690.194915 223.246318 
C 1690.194915 217.013952 1687.71877 211.036009 1683.311822 206.629061 
C 1678.904874 202.222113 1672.926931 199.745968 1666.694566 199.745968 
C 1660.4622 199.745968 1654.484257 202.222113 1650.077309 206.629061 
C 1645.670361 211.036009 1643.194216 217.013952 1643.194216 223.246318 
C 1643.194216 229.478683 1645.670361 235.456626 1650.077309 239.863574 
C 1654.484257 244.270522 1660.4622 246.746667 1666.694566 246.746667 
z
" clip-path="url(#p45fed3c8e0)" style="fill: #ff0000; stroke: #000000; stroke-linejoin: miter"/>
   </g>
   <g id="text_1">
    <!-- genero -->
    <g transform="translate(800.80815 342.955565) scale(0.08 -0.08)">
     <defs>
      <path id="DejaVuSans-67" d="M 2906 1791 
Q 2906 2416 2648 2759 
Q 2391 3103 1925 3103 
Q 1463 3103 1205 2759 
Q 947 2416 947 1791 
Q 947 1169 1205 825 
Q 1463 481 1925 481 
Q 2391 481 2648 825 
Q 2906 1169 2906 1791 
z
M 3481 434 
Q 3481 -459 3084 -895 
Q 2688 -1331 1869 -1331 
Q 1566 -1331 1297 -1286 
Q 1028 -1241 775 -1147 
L 775 -588 
Q 1028 -725 1275 -790 
Q 1522 -856 1778 -856 
Q 2344 -856 2625 -561 
Q 2906 -266 2906 331 
L 2906 616 
Q 2728 306 2450 153 
Q 2172 0 1784 0 
Q 1141 0 747 490 
Q 353 981 353 1791 
Q 353 2603 747 3093 
Q 1141 3584 1784 3584 
Q 2172 3584 2450 3431 
Q 2728 3278 2906 2969 
L 2906 3500 
L 3481 3500 
L 3481 434 
z
" transform="scale(0.015625)"/>
      <path id="DejaVuSans-65" d="M 3597 1894 
L 3597 1613 
L 953 1613 
Q 991 1019 1311 708 
Q 1631 397 2203 397 
Q 2534 397 2845 478 
Q 3156 559 3463 722 
L 3463 178 
Q 3153 47 2828 -22 
Q 2503 -91 2169 -91 
Q 1331 -91 842 396 
Q 353 884 353 1716 
Q 353 2575 817 3079 
Q 1281 3584 2069 3584 
Q 2775 3584 3186 3129 
Q 3597 2675 3597 1894 
z
M 3022 2063 
Q 3016 2534 2758 2815 
Q 2500 3097 2075 3097 
Q 1594 3097 1305 2825 
Q 1016 2553 972 2059 
L 3022 2063 
z
" transform="scale(0.015625)"/>
      <path id="DejaVuSans-6e" d="M 3513 2113 
L 3513 0 
L 2938 0 
L 2938 2094 
Q 2938 2591 2744 2837 
Q 2550 3084 2163 3084 
Q 1697 3084 1428 2787 
Q 1159 2491 1159 1978 
L 1159 0 
L 581 0 
L 581 3500 
L 1159 3500 
L 1159 2956 
Q 1366 3272 1645 3428 
Q 1925 3584 2291 3584 
Q 2894 3584 3203 3211 
Q 3513 2838 3513 2113 
z
" transform="scale(0.015625)"/>
      <path id="DejaVuSans-72" d="M 2631 2963 
Q 2534 3019 2420 3045 
Q 2306 3072 2169 3072 
Q 1681 3072 1420 2755 
Q 1159 2438 1159 1844 
L 1159 0 
L 581 0 
L 581 3500 
L 1159 3500 
L 1159 2956 
Q 1341 3275 1631 3429 
Q 1922 3584 2338 3584 
Q 2397 3584 2469 3576 
Q 2541 3569 2628 3553 
L 2631 2963 
z
" transform="scale(0.015625)"/>
      <path id="DejaVuSans-6f" d="M 1959 3097 
Q 1497 3097 1228 2736 
Q 959 2375 959 1747 
Q 959 1119 1226 758 
Q 1494 397 1959 397 
Q 2419 397 2687 759 
Q 2956 1122 2956 1747 
Q 2956 2369 2687 2733 
Q 2419 3097 1959 3097 
z
M 1959 3584 
Q 2709 3584 3137 3096 
Q 3566 2609 3566 1747 
Q 3566 888 3137 398 
Q 2709 -91 1959 -91 
Q 1206 -91 779 398 
Q 353 888 353 1747 
Q 353 2609 779 3096 
Q 1206 3584 1959 3584 
z
" transform="scale(0.015625)"/>
     </defs>
     <use xlink:href="#DejaVuSans-67"/>
     <use xlink:href="#DejaVuSans-65" x="63.476562"/>
     <use xlink:href="#DejaVuSans-6e" x="125"/>
     <use xlink:href="#DejaVuSans-65" x="188.378906"/>
     <use xlink:href="#DejaVuSans-72" x="249.902344"/>
     <use xlink:href="#DejaVuSans-6f" x="288.765625"/>
    </g>
   </g>
   <g id="text_2">
    <!-- acao -->
    <g transform="translate(70.871606 284.204691) scale(0.08 -0.08)">
     <defs>
      <path id="DejaVuSans-61" d="M 2194 1759 
Q 1497 1759 1228 1600 
Q 959 1441 959 1056 
Q 959 750 1161 570 
Q 1363 391 1709 391 
Q 2188 391 2477 730 
Q 2766 1069 2766 1631 
L 2766 1759 
L 2194 1759 
z
M 3341 1997 
L 3341 0 
L 2766 0 
L 2766 531 
Q 2569 213 2275 61 
Q 1981 -91 1556 -91 
Q 1019 -91 701 211 
Q 384 513 384 1019 
Q 384 1609 779 1909 
Q 1175 2209 1959 2209 
L 2766 2209 
L 2766 2266 
Q 2766 2663 2505 2880 
Q 2244 3097 1772 3097 
Q 1472 3097 1187 3025 
Q 903 2953 641 2809 
L 641 3341 
Q 956 3463 1253 3523 
Q 1550 3584 1831 3584 
Q 2591 3584 2966 3190 
Q 3341 2797 3341 1997 
z
" transform="scale(0.015625)"/>
      <path id="DejaVuSans-63" d="M 3122 3366 
L 3122 2828 
Q 2878 2963 2633 3030 
Q 2388 3097 2138 3097 
Q 1578 3097 1268 2742 
Q 959 2388 959 1747 
Q 959 1106 1268 751 
Q 1578 397 2138 397 
Q 2388 397 2633 464 
Q 2878 531 3122 666 
L 3122 134 
Q 2881 22 2623 -34 
Q 2366 -91 2075 -91 
Q 1284 -91 818 406 
Q 353 903 353 1747 
Q 353 2603 823 3093 
Q 1294 3584 2113 3584 
Q 2378 3584 2631 3529 
Q 2884 3475 3122 3366 
z
" transform="scale(0.015625)"/>
     </defs>
     <use xlink:href="#DejaVuSans-61"/>
     <use xlink:href="#DejaVuSans-63" x="61.279297"/>
     <use xlink:href="#DejaVuSans-61" x="116.259766"/>
     <use xlink:href="#DejaVuSans-6f" x="177.539062"/>
    </g>
   </g>
   <g id="text_3">
    <!-- comedia -->
    <g transform="translate(357.069099 284.204691) scale(0.08 -0.08)">
     <defs>
      <path id="DejaVuSans-6d" d="M 3328 2828 
Q 3544 3216 3844 3400 
Q 4144 3584 4550 3584 
Q 5097 3584 5394 3201 
Q 5691 2819 5691 2113 
L 5691 0 
L 5113 0 
L 5113 2094 
Q 5113 2597 4934 2840 
Q 4756 3084 4391 3084 
Q 3944 3084 3684 2787 
Q 3425 2491 3425 1978 
L 3425 0 
L 2847 0 
L 2847 2094 
Q 2847 2600 2669 2842 
Q 2491 3084 2119 3084 
Q 1678 3084 1418 2786 
Q 1159 2488 1159 1978 
L 1159 0 
L 581 0 
L 581 3500 
L 1159 3500 
L 1159 2956 
Q 1356 3278 1631 3431 
Q 1906 3584 2284 3584 
Q 2666 3584 2933 3390 
Q 3200 3197 3328 2828 
z
" transform="scale(0.015625)"/>
      <path id="DejaVuSans-64" d="M 2906 2969 
L 2906 4863 
L 3481 4863 
L 3481 0 
L 2906 0 
L 2906 525 
Q 2725 213 2448 61 
Q 2172 -91 1784 -91 
Q 1150 -91 751 415 
Q 353 922 353 1747 
Q 353 2572 751 3078 
Q 1150 3584 1784 3584 
Q 2172 3584 2448 3432 
Q 2725 3281 2906 2969 
z
M 947 1747 
Q 947 1113 1208 752 
Q 1469 391 1925 391 
Q 2381 391 2643 752 
Q 2906 1113 2906 1747 
Q 2906 2381 2643 2742 
Q 2381 3103 1925 3103 
Q 1469 3103 1208 2742 
Q 947 2381 947 1747 
z
" transform="scale(0.015625)"/>
      <path id="DejaVuSans-69" d="M 603 3500 
L 1178 3500 
L 1178 0 
L 603 0 
L 603 3500 
z
M 603 4863 
L 1178 4863 
L 1178 4134 
L 603 4134 
L 603 4863 
z
" transform="scale(0.015625)"/>
     </defs>
     <use xlink:href="#DejaVuSans-63"/>
     <use xlink:href="#DejaVuSans-6f" x="54.980469"/>
     <use xlink:href="#DejaVuSans-6d" x="116.162109"/>
     <use xlink:href="#DejaVuSans-65" x="213.574219"/>
     <use xlink:href="#DejaVuSans-64" x="275.097656"/>
     <use xlink:href="#DejaVuSans-69" x="338.574219"/>
     <use xlink:href="#DejaVuSans-61" x="366.357422"/>
    </g>
   </g>
   <g id="text_4">
    <!-- ficcao -->
    <g transform="translate(656.112841 284.204691) scale(0.08 -0.08)">
     <defs>
      <path id="DejaVuSans-66" d="M 2375 4863 
L 2375 4384 
L 1825 4384 
Q 1516 4384 1395 4259 
Q 1275 4134 1275 3809 
L 1275 3500 
L 2222 3500 
L 2222 3053 
L 1275 3053 
L 1275 0 
L 697 0 
L 697 3053 
L 147 3053 
L 147 3500 
L 697 3500 
L 697 3744 
Q 697 4328 969 4595 
Q 1241 4863 1831 4863 
L 2375 4863 
z
" transform="scale(0.015625)"/>
     </defs>
     <use xlink:href="#DejaVuSans-66"/>
     <use xlink:href="#DejaVuSans-69" x="35.205078"/>
     <use xlink:href="#DejaVuSans-63" x="62.988281"/>
     <use xlink:href="#DejaVuSans-63" x="117.96875"/>
     <use xlink:href="#DejaVuSans-61" x="172.949219"/>
     <use xlink:href="#DejaVuSans-6f" x="234.228516"/>
    </g>
   </g>
   <g id="text_5">
    <!-- terror -->
    <g transform="translate(950.434084 284.204691) scale(0.08 -0.08)">
     <defs>
      <path id="DejaVuSans-74" d="M 1172 4494 
L 1172 3500 
L 2356 3500 
L 2356 3053 
L 1172 3053 
L 1172 1153 
Q 1172 725 1289 603 
Q 1406 481 1766 481 
L 2356 481 
L 2356 0 
L 1766 0 
Q 1100 0 847 248 
Q 594 497 594 1153 
L 594 3053 
L 172 3053 
L 172 3500 
L 594 3500 
L 594 4494 
L 1172 4494 
z
" transform="scale(0.015625)"/>
     </defs>
     <use xlink:href="#DejaVuSans-74"/>
     <use xlink:href="#DejaVuSans-65" x="39.208984"/>
     <use xlink:href="#DejaVuSans-72" x="100.732422"/>
     <use xlink:href="#DejaVuSans-72" x="140.095703"/>
     <use xlink:href="#DejaVuSans-6f" x="178.958984"/>
     <use xlink:href="#DejaVuSans-72" x="240.140625"/>
    </g>
   </g>
   <g id="text_6">
    <!-- suspense -->
    <g transform="translate(1236.655326 284.204691) scale(0.08 -0.08)">
     <defs>
      <path id="DejaVuSans-73" d="M 2834 3397 
L 2834 2853 
Q 2591 2978 2328 3040 
Q 2066 3103 1784 3103 
Q 1356 3103 1142 2972 
Q 928 2841 928 2578 
Q 928 2378 1081 2264 
Q 1234 2150 1697 2047 
L 1894 2003 
Q 2506 1872 2764 1633 
Q 3022 1394 3022 966 
Q 3022 478 2636 193 
Q 2250 -91 1575 -91 
Q 1294 -91 989 -36 
Q 684 19 347 128 
L 347 722 
Q 666 556 975 473 
Q 1284 391 1588 391 
Q 1994 391 2212 530 
Q 2431 669 2431 922 
Q 2431 1156 2273 1281 
Q 2116 1406 1581 1522 
L 1381 1569 
Q 847 1681 609 1914 
Q 372 2147 372 2553 
Q 372 3047 722 3315 
Q 1072 3584 1716 3584 
Q 2034 3584 2315 3537 
Q 2597 3491 2834 3397 
z
" transform="scale(0.015625)"/>
      <path id="DejaVuSans-75" d="M 544 1381 
L 544 3500 
L 1119 3500 
L 1119 1403 
Q 1119 906 1312 657 
Q 1506 409 1894 409 
Q 2359 409 2629 706 
Q 2900 1003 2900 1516 
L 2900 3500 
L 3475 3500 
L 3475 0 
L 2900 0 
L 2900 538 
Q 2691 219 2414 64 
Q 2138 -91 1772 -91 
Q 1169 -91 856 284 
Q 544 659 544 1381 
z
M 1991 3584 
L 1991 3584 
z
" transform="scale(0.015625)"/>
      <path id="DejaVuSans-70" d="M 1159 525 
L 1159 -1331 
L 581 -1331 
L 581 3500 
L 1159 3500 
L 1159 2969 
Q 1341 3281 1617 3432 
Q 1894 3584 2278 3584 
Q 2916 3584 3314 3078 
Q 3713 2572 3713 1747 
Q 3713 922 3314 415 
Q 2916 -91 2278 -91 
Q 1894 -91 1617 61 
Q 1341 213 1159 525 
z
M 3116 1747 
Q 3116 2381 2855 2742 
Q 2594 3103 2138 3103 
Q 1681 3103 1420 2742 
Q 1159 2381 1159 1747 
Q 1159 1113 1420 752 
Q 1681 391 2138 391 
Q 2594 391 2855 752 
Q 3116 1113 3116 1747 
z
" transform="scale(0.015625)"/>
     </defs>
     <use xlink:href="#DejaVuSans-73"/>
     <use xlink:href="#DejaVuSans-75" x="52.099609"/>
     <use xlink:href="#DejaVuSans-73" x="115.478516"/>
     <use xlink:href="#DejaVuSans-70" x="167.578125"/>
     <use xlink:href="#DejaVuSans-65" x="231.054688"/>
     <use xlink:href="#DejaVuSans-6e" x="292.578125"/>
     <use xlink:href="#DejaVuSans-73" x="355.957031"/>
     <use xlink:href="#DejaVuSans-65" x="408.056641"/>
    </g>
   </g>
   <g id="text_7">
    <!-- romance -->
    <g transform="translate(1531.647819 284.204691) scale(0.08 -0.08)">
     <use xlink:href="#DejaVuSans-72"/>
     <use xlink:href="#DejaVuSans-6f" x="38.863281"/>
     <use xlink:href="#DejaVuSans-6d" x="100.044922"/>
     <use xlink:href="#DejaVuSans-61" x="197.457031"/>
     <use xlink:href="#DejaVuSans-6e" x="258.736328"/>
     <use xlink:href="#DejaVuSans-63" x="322.115234"/>
     <use xlink:href="#DejaVuSans-65" x="377.095703"/>
    </g>
   </g>
   <g id="text_8">
    <!-- drive(2011) -->
    <g transform="translate(-60.505766 225.453818) scale(0.08 -0.08)">
     <defs>
      <path id="DejaVuSans-76" d="M 191 3500 
L 800 3500 
L 1894 563 
L 2988 3500 
L 3597 3500 
L 2284 0 
L 1503 0 
L 191 3500 
z
" transform="scale(0.015625)"/>
      <path id="DejaVuSans-28" d="M 1984 4856 
Q 1566 4138 1362 3434 
Q 1159 2731 1159 2009 
Q 1159 1288 1364 580 
Q 1569 -128 1984 -844 
L 1484 -844 
Q 1016 -109 783 600 
Q 550 1309 550 2009 
Q 550 2706 781 3412 
Q 1013 4119 1484 4856 
L 1984 4856 
z
" transform="scale(0.015625)"/>
      <path id="DejaVuSans-32" d="M 1228 531 
L 3431 531 
L 3431 0 
L 469 0 
L 469 531 
Q 828 903 1448 1529 
Q 2069 2156 2228 2338 
Q 2531 2678 2651 2914 
Q 2772 3150 2772 3378 
Q 2772 3750 2511 3984 
Q 2250 4219 1831 4219 
Q 1534 4219 1204 4116 
Q 875 4013 500 3803 
L 500 4441 
Q 881 4594 1212 4672 
Q 1544 4750 1819 4750 
Q 2544 4750 2975 4387 
Q 3406 4025 3406 3419 
Q 3406 3131 3298 2873 
Q 3191 2616 2906 2266 
Q 2828 2175 2409 1742 
Q 1991 1309 1228 531 
z
" transform="scale(0.015625)"/>
      <path id="DejaVuSans-30" d="M 2034 4250 
Q 1547 4250 1301 3770 
Q 1056 3291 1056 2328 
Q 1056 1369 1301 889 
Q 1547 409 2034 409 
Q 2525 409 2770 889 
Q 3016 1369 3016 2328 
Q 3016 3291 2770 3770 
Q 2525 4250 2034 4250 
z
M 2034 4750 
Q 2819 4750 3233 4129 
Q 3647 3509 3647 2328 
Q 3647 1150 3233 529 
Q 2819 -91 2034 -91 
Q 1250 -91 836 529 
Q 422 1150 422 2328 
Q 422 3509 836 4129 
Q 1250 4750 2034 4750 
z
" transform="scale(0.015625)"/>
      <path id="DejaVuSans-31" d="M 794 531 
L 1825 531 
L 1825 4091 
L 703 3866 
L 703 4441 
L 1819 4666 
L 2450 4666 
L 2450 531 
L 3481 531 
L 3481 0 
L 794 0 
L 794 531 
z
" transform="scale(0.015625)"/>
      <path id="DejaVuSans-29" d="M 513 4856 
L 1013 4856 
Q 1481 4119 1714 3412 
Q 1947 2706 1947 2009 
Q 1947 1309 1714 600 
Q 1481 -109 1013 -844 
L 513 -844 
Q 928 -128 1133 580 
Q 1338 1288 1338 2009 
Q 1338 2731 1133 3434 
Q 928 4138 513 4856 
z
" transform="scale(0.015625)"/>
     </defs>
     <use xlink:href="#DejaVuSans-64"/>
     <use xlink:href="#DejaVuSans-72" x="63.476562"/>
     <use xlink:href="#DejaVuSans-69" x="104.589844"/>
     <use xlink:href="#DejaVuSans-76" x="132.373047"/>
     <use xlink:href="#DejaVuSans-65" x="191.552734"/>
     <use xlink:href="#DejaVuSans-28" x="253.076172"/>
     <use xlink:href="#DejaVuSans-32" x="292.089844"/>
     <use xlink:href="#DejaVuSans-30" x="355.712891"/>
     <use xlink:href="#DejaVuSans-31" x="419.335938"/>
     <use xlink:href="#DejaVuSans-31" x="482.958984"/>
     <use xlink:href="#DejaVuSans-29" x="546.582031"/>
    </g>
   </g>
   <g id="text_9">
    <!-- truque de mestre -->
    <g transform="translate(-13.181142 225.453818) scale(0.08 -0.08)">
     <defs>
      <path id="DejaVuSans-71" d="M 947 1747 
Q 947 1113 1208 752 
Q 1469 391 1925 391 
Q 2381 391 2643 752 
Q 2906 1113 2906 1747 
Q 2906 2381 2643 2742 
Q 2381 3103 1925 3103 
Q 1469 3103 1208 2742 
Q 947 2381 947 1747 
z
M 2906 525 
Q 2725 213 2448 61 
Q 2172 -91 1784 -91 
Q 1150 -91 751 415 
Q 353 922 353 1747 
Q 353 2572 751 3078 
Q 1150 3584 1784 3584 
Q 2172 3584 2448 3432 
Q 2725 3281 2906 2969 
L 2906 3500 
L 3481 3500 
L 3481 -1331 
L 2906 -1331 
L 2906 525 
z
" transform="scale(0.015625)"/>
      <path id="DejaVuSans-20" transform="scale(0.015625)"/>
     </defs>
     <use xlink:href="#DejaVuSans-74"/>
     <use xlink:href="#DejaVuSans-72" x="39.208984"/>
     <use xlink:href="#DejaVuSans-75" x="80.322266"/>
     <use xlink:href="#DejaVuSans-71" x="143.701172"/>
     <use xlink:href="#DejaVuSans-75" x="207.177734"/>
     <use xlink:href="#DejaVuSans-65" x="270.556641"/>
     <use xlink:href="#DejaVuSans-20" x="332.080078"/>
     <use xlink:href="#DejaVuSans-64" x="363.867188"/>
     <use xlink:href="#DejaVuSans-65" x="427.34375"/>
     <use xlink:href="#DejaVuSans-20" x="488.867188"/>
     <use xlink:href="#DejaVuSans-6d" x="520.654297"/>
     <use xlink:href="#DejaVuSans-65" x="618.066406"/>
     <use xlink:href="#DejaVuSans-73" x="679.589844"/>
     <use xlink:href="#DejaVuSans-74" x="731.689453"/>
     <use xlink:href="#DejaVuSans-72" x="770.898438"/>
     <use xlink:href="#DejaVuSans-65" x="809.761719"/>
    </g>
   </g>
   <g id="text_10">
    <!-- vingadores -->
    <g transform="translate(58.330356 225.453818) scale(0.08 -0.08)">
     <use xlink:href="#DejaVuSans-76"/>
     <use xlink:href="#DejaVuSans-69" x="59.179688"/>
     <use xlink:href="#DejaVuSans-6e" x="86.962891"/>
     <use xlink:href="#DejaVuSans-67" x="150.341797"/>
     <use xlink:href="#DejaVuSans-61" x="213.818359"/>
     <use xlink:href="#DejaVuSans-64" x="275.097656"/>
     <use xlink:href="#DejaVuSans-6f" x="338.574219"/>
     <use xlink:href="#DejaVuSans-72" x="399.755859"/>
     <use xlink:href="#DejaVuSans-65" x="438.619141"/>
     <use xlink:href="#DejaVuSans-73" x="500.142578"/>
    </g>
   </g>
   <g id="text_11">
    <!-- morbius -->
    <g transform="translate(122.914355 225.453818) scale(0.08 -0.08)">
     <defs>
      <path id="DejaVuSans-62" d="M 3116 1747 
Q 3116 2381 2855 2742 
Q 2594 3103 2138 3103 
Q 1681 3103 1420 2742 
Q 1159 2381 1159 1747 
Q 1159 1113 1420 752 
Q 1681 391 2138 391 
Q 2594 391 2855 752 
Q 3116 1113 3116 1747 
z
M 1159 2969 
Q 1341 3281 1617 3432 
Q 1894 3584 2278 3584 
Q 2916 3584 3314 3078 
Q 3713 2572 3713 1747 
Q 3713 922 3314 415 
Q 2916 -91 2278 -91 
Q 1894 -91 1617 61 
Q 1341 213 1159 525 
L 1159 0 
L 581 0 
L 581 4863 
L 1159 4863 
L 1159 2969 
z
" transform="scale(0.015625)"/>
     </defs>
     <use xlink:href="#DejaVuSans-6d"/>
     <use xlink:href="#DejaVuSans-6f" x="97.412109"/>
     <use xlink:href="#DejaVuSans-72" x="158.59375"/>
     <use xlink:href="#DejaVuSans-62" x="199.707031"/>
     <use xlink:href="#DejaVuSans-69" x="263.183594"/>
     <use xlink:href="#DejaVuSans-75" x="290.966797"/>
     <use xlink:href="#DejaVuSans-73" x="354.345703"/>
    </g>
   </g>
   <g id="text_12">
    <!-- trem-bala -->
    <g transform="translate(178.446478 225.453818) scale(0.08 -0.08)">
     <defs>
      <path id="DejaVuSans-2d" d="M 313 2009 
L 1997 2009 
L 1997 1497 
L 313 1497 
L 313 2009 
z
" transform="scale(0.015625)"/>
      <path id="DejaVuSans-6c" d="M 603 4863 
L 1178 4863 
L 1178 0 
L 603 0 
L 603 4863 
z
" transform="scale(0.015625)"/>
     </defs>
     <use xlink:href="#DejaVuSans-74"/>
     <use xlink:href="#DejaVuSans-72" x="39.208984"/>
     <use xlink:href="#DejaVuSans-65" x="78.072266"/>
     <use xlink:href="#DejaVuSans-6d" x="139.595703"/>
     <use xlink:href="#DejaVuSans-2d" x="237.007812"/>
     <use xlink:href="#DejaVuSans-62" x="273.091797"/>
     <use xlink:href="#DejaVuSans-61" x="336.568359"/>
     <use xlink:href="#DejaVuSans-6c" x="397.847656"/>
     <use xlink:href="#DejaVuSans-61" x="425.630859"/>
    </g>
   </g>
   <g id="text_13">
    <!-- se beber nao case -->
    <g transform="translate(220.039852 225.453818) scale(0.08 -0.08)">
     <use xlink:href="#DejaVuSans-73"/>
     <use xlink:href="#DejaVuSans-65" x="52.099609"/>
     <use xlink:href="#DejaVuSans-20" x="113.623047"/>
     <use xlink:href="#DejaVuSans-62" x="145.410156"/>
     <use xlink:href="#DejaVuSans-65" x="208.886719"/>
     <use xlink:href="#DejaVuSans-62" x="270.410156"/>
     <use xlink:href="#DejaVuSans-65" x="333.886719"/>
     <use xlink:href="#DejaVuSans-72" x="395.410156"/>
     <use xlink:href="#DejaVuSans-20" x="436.523438"/>
     <use xlink:href="#DejaVuSans-6e" x="468.310547"/>
     <use xlink:href="#DejaVuSans-61" x="531.689453"/>
     <use xlink:href="#DejaVuSans-6f" x="592.96875"/>
     <use xlink:href="#DejaVuSans-20" x="654.150391"/>
     <use xlink:href="#DejaVuSans-63" x="685.9375"/>
     <use xlink:href="#DejaVuSans-61" x="740.917969"/>
     <use xlink:href="#DejaVuSans-73" x="802.197266"/>
     <use xlink:href="#DejaVuSans-65" x="854.296875"/>
    </g>
   </g>
   <g id="text_14">
    <!-- minions -->
    <g transform="translate(299.704475 225.453818) scale(0.08 -0.08)">
     <use xlink:href="#DejaVuSans-6d"/>
     <use xlink:href="#DejaVuSans-69" x="97.412109"/>
     <use xlink:href="#DejaVuSans-6e" x="125.195312"/>
     <use xlink:href="#DejaVuSans-69" x="188.574219"/>
     <use xlink:href="#DejaVuSans-6f" x="216.357422"/>
     <use xlink:href="#DejaVuSans-6e" x="277.539062"/>
     <use xlink:href="#DejaVuSans-73" x="340.917969"/>
    </g>
   </g>
   <g id="text_15">
    <!-- meu malvado favorito 2 -->
    <g transform="translate(326.214099 225.453818) scale(0.08 -0.08)">
     <use xlink:href="#DejaVuSans-6d"/>
     <use xlink:href="#DejaVuSans-65" x="97.412109"/>
     <use xlink:href="#DejaVuSans-75" x="158.935547"/>
     <use xlink:href="#DejaVuSans-20" x="222.314453"/>
     <use xlink:href="#DejaVuSans-6d" x="254.101562"/>
     <use xlink:href="#DejaVuSans-61" x="351.513672"/>
     <use xlink:href="#DejaVuSans-6c" x="412.792969"/>
     <use xlink:href="#DejaVuSans-76" x="440.576172"/>
     <use xlink:href="#DejaVuSans-61" x="499.755859"/>
     <use xlink:href="#DejaVuSans-64" x="561.035156"/>
     <use xlink:href="#DejaVuSans-6f" x="624.511719"/>
     <use xlink:href="#DejaVuSans-20" x="685.693359"/>
     <use xlink:href="#DejaVuSans-66" x="717.480469"/>
     <use xlink:href="#DejaVuSans-61" x="752.685547"/>
     <use xlink:href="#DejaVuSans-76" x="813.964844"/>
     <use xlink:href="#DejaVuSans-6f" x="873.144531"/>
     <use xlink:href="#DejaVuSans-72" x="934.326172"/>
     <use xlink:href="#DejaVuSans-69" x="975.439453"/>
     <use xlink:href="#DejaVuSans-74" x="1003.222656"/>
     <use xlink:href="#DejaVuSans-6f" x="1042.431641"/>
     <use xlink:href="#DejaVuSans-20" x="1103.613281"/>
     <use xlink:href="#DejaVuSans-32" x="1135.400391"/>
    </g>
   </g>
   <g id="text_16">
    <!-- luck -->
    <g transform="translate(424.764347 225.453818) scale(0.08 -0.08)">
     <defs>
      <path id="DejaVuSans-6b" d="M 581 4863 
L 1159 4863 
L 1159 1991 
L 2875 3500 
L 3609 3500 
L 1753 1863 
L 3688 0 
L 2938 0 
L 1159 1709 
L 1159 0 
L 581 0 
L 581 4863 
z
" transform="scale(0.015625)"/>
     </defs>
     <use xlink:href="#DejaVuSans-6c"/>
     <use xlink:href="#DejaVuSans-75" x="27.783203"/>
     <use xlink:href="#DejaVuSans-63" x="91.162109"/>
     <use xlink:href="#DejaVuSans-6b" x="146.142578"/>
    </g>
   </g>
   <g id="text_17">
    <!-- cidade perdida -->
    <g transform="translate(461.887721 225.453818) scale(0.08 -0.08)">
     <use xlink:href="#DejaVuSans-63"/>
     <use xlink:href="#DejaVuSans-69" x="54.980469"/>
     <use xlink:href="#DejaVuSans-64" x="82.763672"/>
     <use xlink:href="#DejaVuSans-61" x="146.240234"/>
     <use xlink:href="#DejaVuSans-64" x="207.519531"/>
     <use xlink:href="#DejaVuSans-65" x="270.996094"/>
     <use xlink:href="#DejaVuSans-20" x="332.519531"/>
     <use xlink:href="#DejaVuSans-70" x="364.306641"/>
     <use xlink:href="#DejaVuSans-65" x="427.783203"/>
     <use xlink:href="#DejaVuSans-72" x="489.306641"/>
     <use xlink:href="#DejaVuSans-64" x="528.669922"/>
     <use xlink:href="#DejaVuSans-69" x="592.146484"/>
     <use xlink:href="#DejaVuSans-64" x="619.929688"/>
     <use xlink:href="#DejaVuSans-61" x="683.40625"/>
    </g>
   </g>
   <g id="text_18">
    <!-- jogos mortais -->
    <g transform="translate(817.079212 225.453818) scale(0.08 -0.08)">
     <defs>
      <path id="DejaVuSans-6a" d="M 603 3500 
L 1178 3500 
L 1178 -63 
Q 1178 -731 923 -1031 
Q 669 -1331 103 -1331 
L -116 -1331 
L -116 -844 
L 38 -844 
Q 366 -844 484 -692 
Q 603 -541 603 -63 
L 603 3500 
z
M 603 4863 
L 1178 4863 
L 1178 4134 
L 603 4134 
L 603 4863 
z
" transform="scale(0.015625)"/>
     </defs>
     <use xlink:href="#DejaVuSans-6a"/>
     <use xlink:href="#DejaVuSans-6f" x="27.783203"/>
     <use xlink:href="#DejaVuSans-67" x="88.964844"/>
     <use xlink:href="#DejaVuSans-6f" x="152.441406"/>
     <use xlink:href="#DejaVuSans-73" x="213.623047"/>
     <use xlink:href="#DejaVuSans-20" x="265.722656"/>
     <use xlink:href="#DejaVuSans-6d" x="297.509766"/>
     <use xlink:href="#DejaVuSans-6f" x="394.921875"/>
     <use xlink:href="#DejaVuSans-72" x="456.103516"/>
     <use xlink:href="#DejaVuSans-74" x="497.216797"/>
     <use xlink:href="#DejaVuSans-61" x="536.425781"/>
     <use xlink:href="#DejaVuSans-69" x="597.705078"/>
     <use xlink:href="#DejaVuSans-73" x="625.488281"/>
    </g>
   </g>
   <g id="text_19">
    <!-- a freira -->
    <g transform="translate(888.580085 225.453818) scale(0.08 -0.08)">
     <use xlink:href="#DejaVuSans-61"/>
     <use xlink:href="#DejaVuSans-20" x="61.279297"/>
     <use xlink:href="#DejaVuSans-66" x="93.066406"/>
     <use xlink:href="#DejaVuSans-72" x="128.271484"/>
     <use xlink:href="#DejaVuSans-65" x="167.134766"/>
     <use xlink:href="#DejaVuSans-69" x="228.658203"/>
     <use xlink:href="#DejaVuSans-72" x="256.441406"/>
     <use xlink:href="#DejaVuSans-61" x="297.554688"/>
    </g>
   </g>
   <g id="text_20">
    <!-- invocacao do mal -->
    <g transform="translate(926.485959 225.453818) scale(0.08 -0.08)">
     <use xlink:href="#DejaVuSans-69"/>
     <use xlink:href="#DejaVuSans-6e" x="27.783203"/>
     <use xlink:href="#DejaVuSans-76" x="91.162109"/>
     <use xlink:href="#DejaVuSans-6f" x="150.341797"/>
     <use xlink:href="#DejaVuSans-63" x="211.523438"/>
     <use xlink:href="#DejaVuSans-61" x="266.503906"/>
     <use xlink:href="#DejaVuSans-63" x="327.783203"/>
     <use xlink:href="#DejaVuSans-61" x="382.763672"/>
     <use xlink:href="#DejaVuSans-6f" x="444.042969"/>
     <use xlink:href="#DejaVuSans-20" x="505.224609"/>
     <use xlink:href="#DejaVuSans-64" x="537.011719"/>
     <use xlink:href="#DejaVuSans-6f" x="600.488281"/>
     <use xlink:href="#DejaVuSans-20" x="661.669922"/>
     <use xlink:href="#DejaVuSans-6d" x="693.457031"/>
     <use xlink:href="#DejaVuSans-61" x="790.869141"/>
     <use xlink:href="#DejaVuSans-6c" x="852.148438"/>
    </g>
   </g>
   <g id="text_21">
    <!-- a avo -->
    <g transform="translate(1009.446207 225.453818) scale(0.08 -0.08)">
     <use xlink:href="#DejaVuSans-61"/>
     <use xlink:href="#DejaVuSans-20" x="61.279297"/>
     <use xlink:href="#DejaVuSans-61" x="93.066406"/>
     <use xlink:href="#DejaVuSans-76" x="154.345703"/>
     <use xlink:href="#DejaVuSans-6f" x="213.525391"/>
    </g>
   </g>
   <g id="text_22">
    <!-- tempo -->
    <g transform="translate(1066.273331 225.453818) scale(0.08 -0.08)">
     <use xlink:href="#DejaVuSans-74"/>
     <use xlink:href="#DejaVuSans-65" x="39.208984"/>
     <use xlink:href="#DejaVuSans-6d" x="100.732422"/>
     <use xlink:href="#DejaVuSans-70" x="198.144531"/>
     <use xlink:href="#DejaVuSans-6f" x="261.621094"/>
    </g>
   </g>
   <g id="text_23">
    <!-- se7en -->
    <g transform="translate(1125.850454 225.453818) scale(0.08 -0.08)">
     <defs>
      <path id="DejaVuSans-37" d="M 525 4666 
L 3525 4666 
L 3525 4397 
L 1831 0 
L 1172 0 
L 2766 4134 
L 525 4134 
L 525 4666 
z
" transform="scale(0.015625)"/>
     </defs>
     <use xlink:href="#DejaVuSans-73"/>
     <use xlink:href="#DejaVuSans-65" x="52.099609"/>
     <use xlink:href="#DejaVuSans-37" x="113.623047"/>
     <use xlink:href="#DejaVuSans-65" x="177.246094"/>
     <use xlink:href="#DejaVuSans-6e" x="238.769531"/>
    </g>
   </g>
   <g id="text_24">
    <!-- aguas profundas -->
    <g transform="translate(1163.261953 225.453818) scale(0.08 -0.08)">
     <use xlink:href="#DejaVuSans-61"/>
     <use xlink:href="#DejaVuSans-67" x="61.279297"/>
     <use xlink:href="#DejaVuSans-75" x="124.755859"/>
     <use xlink:href="#DejaVuSans-61" x="188.134766"/>
     <use xlink:href="#DejaVuSans-73" x="249.414062"/>
     <use xlink:href="#DejaVuSans-20" x="301.513672"/>
     <use xlink:href="#DejaVuSans-70" x="333.300781"/>
     <use xlink:href="#DejaVuSans-72" x="396.777344"/>
     <use xlink:href="#DejaVuSans-6f" x="435.640625"/>
     <use xlink:href="#DejaVuSans-66" x="496.822266"/>
     <use xlink:href="#DejaVuSans-75" x="532.027344"/>
     <use xlink:href="#DejaVuSans-6e" x="595.40625"/>
     <use xlink:href="#DejaVuSans-64" x="658.785156"/>
     <use xlink:href="#DejaVuSans-61" x="722.261719"/>
     <use xlink:href="#DejaVuSans-73" x="783.541016"/>
    </g>
   </g>
   <g id="text_25">
    <!-- o telefone preto -->
    <g transform="translate(1223.424076 225.453818) scale(0.08 -0.08)">
     <use xlink:href="#DejaVuSans-6f"/>
     <use xlink:href="#DejaVuSans-20" x="61.181641"/>
     <use xlink:href="#DejaVuSans-74" x="92.96875"/>
     <use xlink:href="#DejaVuSans-65" x="132.177734"/>
     <use xlink:href="#DejaVuSans-6c" x="193.701172"/>
     <use xlink:href="#DejaVuSans-65" x="221.484375"/>
     <use xlink:href="#DejaVuSans-66" x="283.007812"/>
     <use xlink:href="#DejaVuSans-6f" x="318.212891"/>
     <use xlink:href="#DejaVuSans-6e" x="379.394531"/>
     <use xlink:href="#DejaVuSans-65" x="442.773438"/>
     <use xlink:href="#DejaVuSans-20" x="504.296875"/>
     <use xlink:href="#DejaVuSans-70" x="536.083984"/>
     <use xlink:href="#DejaVuSans-72" x="599.560547"/>
     <use xlink:href="#DejaVuSans-65" x="638.423828"/>
     <use xlink:href="#DejaVuSans-74" x="699.947266"/>
     <use xlink:href="#DejaVuSans-6f" x="739.15625"/>
    </g>
   </g>
   <g id="text_26">
    <!-- a fera -->
    <g transform="translate(1302.501825 225.453818) scale(0.08 -0.08)">
     <use xlink:href="#DejaVuSans-61"/>
     <use xlink:href="#DejaVuSans-20" x="61.279297"/>
     <use xlink:href="#DejaVuSans-66" x="93.066406"/>
     <use xlink:href="#DejaVuSans-65" x="128.271484"/>
     <use xlink:href="#DejaVuSans-72" x="189.794922"/>
     <use xlink:href="#DejaVuSans-61" x="230.908203"/>
    </g>
   </g>
   <g id="text_27">
    <!-- voce pertence a mim -->
    <g transform="translate(1330.425823 225.453818) scale(0.08 -0.08)">
     <use xlink:href="#DejaVuSans-76"/>
     <use xlink:href="#DejaVuSans-6f" x="59.179688"/>
     <use xlink:href="#DejaVuSans-63" x="120.361328"/>
     <use xlink:href="#DejaVuSans-65" x="175.341797"/>
     <use xlink:href="#DejaVuSans-20" x="236.865234"/>
     <use xlink:href="#DejaVuSans-70" x="268.652344"/>
     <use xlink:href="#DejaVuSans-65" x="332.128906"/>
     <use xlink:href="#DejaVuSans-72" x="393.652344"/>
     <use xlink:href="#DejaVuSans-74" x="434.765625"/>
     <use xlink:href="#DejaVuSans-65" x="473.974609"/>
     <use xlink:href="#DejaVuSans-6e" x="535.498047"/>
     <use xlink:href="#DejaVuSans-63" x="598.876953"/>
     <use xlink:href="#DejaVuSans-65" x="653.857422"/>
     <use xlink:href="#DejaVuSans-20" x="715.380859"/>
     <use xlink:href="#DejaVuSans-61" x="747.167969"/>
     <use xlink:href="#DejaVuSans-20" x="808.447266"/>
     <use xlink:href="#DejaVuSans-6d" x="840.234375"/>
     <use xlink:href="#DejaVuSans-69" x="937.646484"/>
     <use xlink:href="#DejaVuSans-6d" x="965.429688"/>
    </g>
   </g>
   <g id="text_28">
    <!-- interstellar -->
    <g transform="translate(528.676719 225.453818) scale(0.08 -0.08)">
     <use xlink:href="#DejaVuSans-69"/>
     <use xlink:href="#DejaVuSans-6e" x="27.783203"/>
     <use xlink:href="#DejaVuSans-74" x="91.162109"/>
     <use xlink:href="#DejaVuSans-65" x="130.371094"/>
     <use xlink:href="#DejaVuSans-72" x="191.894531"/>
     <use xlink:href="#DejaVuSans-73" x="233.007812"/>
     <use xlink:href="#DejaVuSans-74" x="285.107422"/>
     <use xlink:href="#DejaVuSans-65" x="324.316406"/>
     <use xlink:href="#DejaVuSans-6c" x="385.839844"/>
     <use xlink:href="#DejaVuSans-6c" x="413.623047"/>
     <use xlink:href="#DejaVuSans-61" x="441.40625"/>
     <use xlink:href="#DejaVuSans-72" x="502.685547"/>
    </g>
   </g>
   <g id="text_29">
    <!-- matrix -->
    <g transform="translate(596.140093 225.453818) scale(0.08 -0.08)">
     <defs>
      <path id="DejaVuSans-78" d="M 3513 3500 
L 2247 1797 
L 3578 0 
L 2900 0 
L 1881 1375 
L 863 0 
L 184 0 
L 1544 1831 
L 300 3500 
L 978 3500 
L 1906 2253 
L 2834 3500 
L 3513 3500 
z
" transform="scale(0.015625)"/>
     </defs>
     <use xlink:href="#DejaVuSans-6d"/>
     <use xlink:href="#DejaVuSans-61" x="97.412109"/>
     <use xlink:href="#DejaVuSans-74" x="158.691406"/>
     <use xlink:href="#DejaVuSans-72" x="197.900391"/>
     <use xlink:href="#DejaVuSans-69" x="239.013672"/>
     <use xlink:href="#DejaVuSans-78" x="266.796875"/>
    </g>
   </g>
   <g id="text_30">
    <!-- inception -->
    <g transform="translate(649.421591 225.453818) scale(0.08 -0.08)">
     <use xlink:href="#DejaVuSans-69"/>
     <use xlink:href="#DejaVuSans-6e" x="27.783203"/>
     <use xlink:href="#DejaVuSans-63" x="91.162109"/>
     <use xlink:href="#DejaVuSans-65" x="146.142578"/>
     <use xlink:href="#DejaVuSans-70" x="207.666016"/>
     <use xlink:href="#DejaVuSans-74" x="271.142578"/>
     <use xlink:href="#DejaVuSans-69" x="310.351562"/>
     <use xlink:href="#DejaVuSans-6f" x="338.134766"/>
     <use xlink:href="#DejaVuSans-6e" x="399.316406"/>
    </g>
   </g>
   <g id="text_31">
    <!-- a origem -->
    <g transform="translate(708.85809 225.453818) scale(0.08 -0.08)">
     <use xlink:href="#DejaVuSans-61"/>
     <use xlink:href="#DejaVuSans-20" x="61.279297"/>
     <use xlink:href="#DejaVuSans-6f" x="93.066406"/>
     <use xlink:href="#DejaVuSans-72" x="154.248047"/>
     <use xlink:href="#DejaVuSans-69" x="195.361328"/>
     <use xlink:href="#DejaVuSans-67" x="223.144531"/>
     <use xlink:href="#DejaVuSans-65" x="286.621094"/>
     <use xlink:href="#DejaVuSans-6d" x="348.144531"/>
    </g>
   </g>
   <g id="text_32">
    <!-- perdido em marte -->
    <g transform="translate(749.297713 225.453818) scale(0.08 -0.08)">
     <use xlink:href="#DejaVuSans-70"/>
     <use xlink:href="#DejaVuSans-65" x="63.476562"/>
     <use xlink:href="#DejaVuSans-72" x="125"/>
     <use xlink:href="#DejaVuSans-64" x="164.363281"/>
     <use xlink:href="#DejaVuSans-69" x="227.839844"/>
     <use xlink:href="#DejaVuSans-64" x="255.623047"/>
     <use xlink:href="#DejaVuSans-6f" x="319.099609"/>
     <use xlink:href="#DejaVuSans-20" x="380.28125"/>
     <use xlink:href="#DejaVuSans-65" x="412.068359"/>
     <use xlink:href="#DejaVuSans-6d" x="473.591797"/>
     <use xlink:href="#DejaVuSans-20" x="571.003906"/>
     <use xlink:href="#DejaVuSans-6d" x="602.791016"/>
     <use xlink:href="#DejaVuSans-61" x="700.203125"/>
     <use xlink:href="#DejaVuSans-72" x="761.482422"/>
     <use xlink:href="#DejaVuSans-74" x="802.595703"/>
     <use xlink:href="#DejaVuSans-65" x="841.804688"/>
    </g>
   </g>
   <g id="text_33">
    <!-- o melhor de mim -->
    <g transform="translate(1397.429822 225.453818) scale(0.08 -0.08)">
     <defs>
      <path id="DejaVuSans-68" d="M 3513 2113 
L 3513 0 
L 2938 0 
L 2938 2094 
Q 2938 2591 2744 2837 
Q 2550 3084 2163 3084 
Q 1697 3084 1428 2787 
Q 1159 2491 1159 1978 
L 1159 0 
L 581 0 
L 581 4863 
L 1159 4863 
L 1159 2956 
Q 1366 3272 1645 3428 
Q 1925 3584 2291 3584 
Q 2894 3584 3203 3211 
Q 3513 2838 3513 2113 
z
" transform="scale(0.015625)"/>
     </defs>
     <use xlink:href="#DejaVuSans-6f"/>
     <use xlink:href="#DejaVuSans-20" x="61.181641"/>
     <use xlink:href="#DejaVuSans-6d" x="92.96875"/>
     <use xlink:href="#DejaVuSans-65" x="190.380859"/>
     <use xlink:href="#DejaVuSans-6c" x="251.904297"/>
     <use xlink:href="#DejaVuSans-68" x="279.6875"/>
     <use xlink:href="#DejaVuSans-6f" x="343.066406"/>
     <use xlink:href="#DejaVuSans-72" x="404.248047"/>
     <use xlink:href="#DejaVuSans-20" x="445.361328"/>
     <use xlink:href="#DejaVuSans-64" x="477.148438"/>
     <use xlink:href="#DejaVuSans-65" x="540.625"/>
     <use xlink:href="#DejaVuSans-20" x="602.148438"/>
     <use xlink:href="#DejaVuSans-6d" x="633.935547"/>
     <use xlink:href="#DejaVuSans-69" x="731.347656"/>
     <use xlink:href="#DejaVuSans-6d" x="759.130859"/>
    </g>
   </g>
   <g id="text_34">
    <!-- diario de uma paixao -->
    <g transform="translate(1448.071945 225.453818) scale(0.08 -0.08)">
     <use xlink:href="#DejaVuSans-64"/>
     <use xlink:href="#DejaVuSans-69" x="63.476562"/>
     <use xlink:href="#DejaVuSans-61" x="91.259766"/>
     <use xlink:href="#DejaVuSans-72" x="152.539062"/>
     <use xlink:href="#DejaVuSans-69" x="193.652344"/>
     <use xlink:href="#DejaVuSans-6f" x="221.435547"/>
     <use xlink:href="#DejaVuSans-20" x="282.617188"/>
     <use xlink:href="#DejaVuSans-64" x="314.404297"/>
     <use xlink:href="#DejaVuSans-65" x="377.880859"/>
     <use xlink:href="#DejaVuSans-20" x="439.404297"/>
     <use xlink:href="#DejaVuSans-75" x="471.191406"/>
     <use xlink:href="#DejaVuSans-6d" x="534.570312"/>
     <use xlink:href="#DejaVuSans-61" x="631.982422"/>
     <use xlink:href="#DejaVuSans-20" x="693.261719"/>
     <use xlink:href="#DejaVuSans-70" x="725.048828"/>
     <use xlink:href="#DejaVuSans-61" x="788.525391"/>
     <use xlink:href="#DejaVuSans-69" x="849.804688"/>
     <use xlink:href="#DejaVuSans-78" x="877.587891"/>
     <use xlink:href="#DejaVuSans-61" x="936.767578"/>
     <use xlink:href="#DejaVuSans-6f" x="998.046875"/>
    </g>
   </g>
   <g id="text_35">
    <!-- 365 dias -->
    <g transform="translate(1532.100944 225.453818) scale(0.08 -0.08)">
     <defs>
      <path id="DejaVuSans-33" d="M 2597 2516 
Q 3050 2419 3304 2112 
Q 3559 1806 3559 1356 
Q 3559 666 3084 287 
Q 2609 -91 1734 -91 
Q 1441 -91 1130 -33 
Q 819 25 488 141 
L 488 750 
Q 750 597 1062 519 
Q 1375 441 1716 441 
Q 2309 441 2620 675 
Q 2931 909 2931 1356 
Q 2931 1769 2642 2001 
Q 2353 2234 1838 2234 
L 1294 2234 
L 1294 2753 
L 1863 2753 
Q 2328 2753 2575 2939 
Q 2822 3125 2822 3475 
Q 2822 3834 2567 4026 
Q 2313 4219 1838 4219 
Q 1578 4219 1281 4162 
Q 984 4106 628 3988 
L 628 4550 
Q 988 4650 1302 4700 
Q 1616 4750 1894 4750 
Q 2613 4750 3031 4423 
Q 3450 4097 3450 3541 
Q 3450 3153 3228 2886 
Q 3006 2619 2597 2516 
z
" transform="scale(0.015625)"/>
      <path id="DejaVuSans-36" d="M 2113 2584 
Q 1688 2584 1439 2293 
Q 1191 2003 1191 1497 
Q 1191 994 1439 701 
Q 1688 409 2113 409 
Q 2538 409 2786 701 
Q 3034 994 3034 1497 
Q 3034 2003 2786 2293 
Q 2538 2584 2113 2584 
z
M 3366 4563 
L 3366 3988 
Q 3128 4100 2886 4159 
Q 2644 4219 2406 4219 
Q 1781 4219 1451 3797 
Q 1122 3375 1075 2522 
Q 1259 2794 1537 2939 
Q 1816 3084 2150 3084 
Q 2853 3084 3261 2657 
Q 3669 2231 3669 1497 
Q 3669 778 3244 343 
Q 2819 -91 2113 -91 
Q 1303 -91 875 529 
Q 447 1150 447 2328 
Q 447 3434 972 4092 
Q 1497 4750 2381 4750 
Q 2619 4750 2861 4703 
Q 3103 4656 3366 4563 
z
" transform="scale(0.015625)"/>
      <path id="DejaVuSans-35" d="M 691 4666 
L 3169 4666 
L 3169 4134 
L 1269 4134 
L 1269 2991 
Q 1406 3038 1543 3061 
Q 1681 3084 1819 3084 
Q 2600 3084 3056 2656 
Q 3513 2228 3513 1497 
Q 3513 744 3044 326 
Q 2575 -91 1722 -91 
Q 1428 -91 1123 -41 
Q 819 9 494 109 
L 494 744 
Q 775 591 1075 516 
Q 1375 441 1709 441 
Q 2250 441 2565 725 
Q 2881 1009 2881 1497 
Q 2881 1984 2565 2268 
Q 2250 2553 1709 2553 
Q 1456 2553 1204 2497 
Q 953 2441 691 2322 
L 691 4666 
z
" transform="scale(0.015625)"/>
     </defs>
     <use xlink:href="#DejaVuSans-33"/>
     <use xlink:href="#DejaVuSans-36" x="63.623047"/>
     <use xlink:href="#DejaVuSans-35" x="127.246094"/>
     <use xlink:href="#DejaVuSans-20" x="190.869141"/>
     <use xlink:href="#DejaVuSans-64" x="222.65625"/>
     <use xlink:href="#DejaVuSans-69" x="286.132812"/>
     <use xlink:href="#DejaVuSans-61" x="313.916016"/>
     <use xlink:href="#DejaVuSans-73" x="375.195312"/>
    </g>
   </g>
   <g id="text_36">
    <!-- atraves da minha janela -->
    <g transform="translate(1559.461817 225.453818) scale(0.08 -0.08)">
     <use xlink:href="#DejaVuSans-61"/>
     <use xlink:href="#DejaVuSans-74" x="61.279297"/>
     <use xlink:href="#DejaVuSans-72" x="100.488281"/>
     <use xlink:href="#DejaVuSans-61" x="141.601562"/>
     <use xlink:href="#DejaVuSans-76" x="202.880859"/>
     <use xlink:href="#DejaVuSans-65" x="262.060547"/>
     <use xlink:href="#DejaVuSans-73" x="323.583984"/>
     <use xlink:href="#DejaVuSans-20" x="375.683594"/>
     <use xlink:href="#DejaVuSans-64" x="407.470703"/>
     <use xlink:href="#DejaVuSans-61" x="470.947266"/>
     <use xlink:href="#DejaVuSans-20" x="532.226562"/>
     <use xlink:href="#DejaVuSans-6d" x="564.013672"/>
     <use xlink:href="#DejaVuSans-69" x="661.425781"/>
     <use xlink:href="#DejaVuSans-6e" x="689.208984"/>
     <use xlink:href="#DejaVuSans-68" x="752.587891"/>
     <use xlink:href="#DejaVuSans-61" x="815.966797"/>
     <use xlink:href="#DejaVuSans-20" x="877.246094"/>
     <use xlink:href="#DejaVuSans-6a" x="909.033203"/>
     <use xlink:href="#DejaVuSans-61" x="936.816406"/>
     <use xlink:href="#DejaVuSans-6e" x="998.095703"/>
     <use xlink:href="#DejaVuSans-65" x="1061.474609"/>
     <use xlink:href="#DejaVuSans-6c" x="1122.998047"/>
     <use xlink:href="#DejaVuSans-61" x="1150.78125"/>
    </g>
   </g>
   <g id="text_37">
    <!-- espontanea -->
    <g transform="translate(1643.160816 225.453818) scale(0.08 -0.08)">
     <use xlink:href="#DejaVuSans-65"/>
     <use xlink:href="#DejaVuSans-73" x="61.523438"/>
     <use xlink:href="#DejaVuSans-70" x="113.623047"/>
     <use xlink:href="#DejaVuSans-6f" x="177.099609"/>
     <use xlink:href="#DejaVuSans-6e" x="238.28125"/>
     <use xlink:href="#DejaVuSans-74" x="301.660156"/>
     <use xlink:href="#DejaVuSans-61" x="340.869141"/>
     <use xlink:href="#DejaVuSans-6e" x="402.148438"/>
     <use xlink:href="#DejaVuSans-65" x="465.527344"/>
     <use xlink:href="#DejaVuSans-61" x="527.050781"/>
    </g>
   </g>
  </g>
 </g>
 <defs>
  <clipPath id="p45fed3c8e0">
   <rect x="122.94" y="175.842464" width="762.228" height="124.631072"/>
  </clipPath>
 </defs>
</svg>
