<?xml version="1.0" encoding="utf-8" standalone="no"?>
<!DOCTYPE svg PUBLIC "-//W3C//DTD SVG 1.1//EN"
  "http://www.w3.org/Graphics/SVG/1.1/DTD/svg11.dtd">
<svg xmlns:xlink="http://www.w3.org/1999/xlink" width="720pt" height="509.04pt" viewBox="0 0 720 509.04" xmlns="http://www.w3.org/2000/svg" version="1.1">
 <metadata>
  <rdf:RDF xmlns:dc="http://purl.org/dc/elements/1.1/" xmlns:cc="http://creativecommons.org/ns#" xmlns:rdf="http://www.w3.org/1999/02/22-rdf-syntax-ns#">
   <cc:Work>
    <dc:type rdf:resource="http://purl.org/dc/dcmitype/StillImage"/>
    <dc:date>2022-11-27T13:05:58.116698</dc:date>
    <dc:format>image/svg+xml</dc:format>
    <dc:creator>
     <cc:Agent>
      <dc:title>Matplotlib v3.6.2, https://matplotlib.org/</dc:title>
     </cc:Agent>
    </dc:creator>
   </cc:Work>
  </rdf:RDF>
 </metadata>
 <defs>
  <style type="text/css">*{stroke-linejoin: round; stroke-linecap: butt}</style>
 </defs>
 <g id="figure_1">
  <g id="patch_1">
   <path d="M 0 509.04 
L 720 509.04 
L 720 0 
L 0 0 
z
" style="fill: #ffffff"/>
  </g>
  <g id="axes_1">
   <g id="patch_2">
    <path d="M 170.504961 453.0456 
L 567.495039 453.0456 
L 567.495039 61.0848 
L 170.504961 61.0848 
z
" style="fill: #ffffff"/>
   </g>
   <g id="patch_3">
    <path d="M 370.254538 256.725925 
L 319.652362 196.067679 
" clip-path="url(#p4d1f98cc57)" style="fill: none; stroke: #444444; stroke-width: 2; stroke-linejoin: miter"/>
   </g>
   <g id="patch_4">
    <path d="M 370.254538 256.725925 
L 343.562586 331.514536 
" clip-path="url(#p4d1f98cc57)" style="fill: none; stroke: #444444; stroke-width: 2; stroke-linejoin: miter"/>
   </g>
   <g id="patch_5">
    <path d="M 370.254538 256.725925 
L 448.373674 242.337133 
" clip-path="url(#p4d1f98cc57)" style="fill: none; stroke: #444444; stroke-width: 2; stroke-linejoin: miter"/>
   </g>
   <g id="patch_6">
    <path d="M 370.254538 256.725925 
L 292.211077 270.700605 
" clip-path="url(#p4d1f98cc57)" style="fill: none; stroke: #444444; stroke-width: 2; stroke-linejoin: miter"/>
   </g>
   <g id="patch_7">
    <path d="M 370.254538 256.725925 
L 421.643789 317.226077 
" clip-path="url(#p4d1f98cc57)" style="fill: none; stroke: #444444; stroke-width: 2; stroke-linejoin: miter"/>
   </g>
   <g id="patch_8">
    <path d="M 370.254538 256.725925 
L 397.030477 182.250411 
" clip-path="url(#p4d1f98cc57)" style="fill: none; stroke: #444444; stroke-width: 2; stroke-linejoin: miter"/>
   </g>
   <g id="patch_9">
    <path d="M 319.652362 196.067679 
L 322.549564 113.007009 
" clip-path="url(#p4d1f98cc57)" style="fill: none; stroke: #444444; stroke-width: 2; stroke-linejoin: miter"/>
   </g>
   <g id="patch_10">
    <path d="M 319.652362 196.067679 
L 242.82027 161.942257 
" clip-path="url(#p4d1f98cc57)" style="fill: none; stroke: #444444; stroke-width: 2; stroke-linejoin: miter"/>
   </g>
   <g id="patch_11">
    <path d="M 319.652362 196.067679 
L 254.61064 195.374978 
" clip-path="url(#p4d1f98cc57)" style="fill: none; stroke: #444444; stroke-width: 2; stroke-linejoin: miter"/>
   </g>
   <g id="patch_12">
    <path d="M 319.652362 196.067679 
L 302.472265 138.846161 
" clip-path="url(#p4d1f98cc57)" style="fill: none; stroke: #444444; stroke-width: 2; stroke-linejoin: miter"/>
   </g>
   <g id="patch_13">
    <path d="M 319.652362 196.067679 
L 267.43794 128.633459 
" clip-path="url(#p4d1f98cc57)" style="fill: none; stroke: #444444; stroke-width: 2; stroke-linejoin: miter"/>
   </g>
   <g id="patch_14">
    <path d="M 343.562586 331.514536 
L 374.271321 388.600708 
" clip-path="url(#p4d1f98cc57)" style="fill: none; stroke: #444444; stroke-width: 2; stroke-linejoin: miter"/>
   </g>
   <g id="patch_15">
    <path d="M 343.562586 331.514536 
L 352.95172 415.952748 
" clip-path="url(#p4d1f98cc57)" style="fill: none; stroke: #444444; stroke-width: 2; stroke-linejoin: miter"/>
   </g>
   <g id="patch_16">
    <path d="M 343.562586 331.514536 
L 282.462864 390.715941 
" clip-path="url(#p4d1f98cc57)" style="fill: none; stroke: #444444; stroke-width: 2; stroke-linejoin: miter"/>
   </g>
   <g id="patch_17">
    <path d="M 343.562586 331.514536 
L 317.47084 404.149507 
" clip-path="url(#p4d1f98cc57)" style="fill: none; stroke: #444444; stroke-width: 2; stroke-linejoin: miter"/>
   </g>
   <g id="patch_18">
    <path d="M 343.562586 331.514536 
L 284.088869 355.914718 
" clip-path="url(#p4d1f98cc57)" style="fill: none; stroke: #444444; stroke-width: 2; stroke-linejoin: miter"/>
   </g>
   <g id="patch_19">
    <path d="M 292.211077 270.700605 
L 236.057359 256.051809 
" clip-path="url(#p4d1f98cc57)" style="fill: none; stroke: #444444; stroke-width: 2; stroke-linejoin: miter"/>
   </g>
   <g id="patch_20">
    <path d="M 292.211077 270.700605 
L 256.373771 328.119414 
" clip-path="url(#p4d1f98cc57)" style="fill: none; stroke: #444444; stroke-width: 2; stroke-linejoin: miter"/>
   </g>
   <g id="patch_21">
    <path d="M 292.211077 270.700605 
L 207.826417 280.865206 
" clip-path="url(#p4d1f98cc57)" style="fill: none; stroke: #444444; stroke-width: 2; stroke-linejoin: miter"/>
   </g>
   <g id="patch_22">
    <path d="M 292.211077 270.700605 
L 223.418806 319.03476 
" clip-path="url(#p4d1f98cc57)" style="fill: none; stroke: #444444; stroke-width: 2; stroke-linejoin: miter"/>
   </g>
   <g id="patch_23">
    <path d="M 292.211077 270.700605 
L 220.816431 226.833088 
" clip-path="url(#p4d1f98cc57)" style="fill: none; stroke: #444444; stroke-width: 2; stroke-linejoin: miter"/>
   </g>
   <g id="patch_24">
    <path d="M 421.643789 317.226077 
L 499.576186 351.140586 
" clip-path="url(#p4d1f98cc57)" style="fill: none; stroke: #444444; stroke-width: 2; stroke-linejoin: miter"/>
   </g>
   <g id="patch_25">
    <path d="M 421.643789 317.226077 
L 413.03047 381.417412 
" clip-path="url(#p4d1f98cc57)" style="fill: none; stroke: #444444; stroke-width: 2; stroke-linejoin: miter"/>
   </g>
   <g id="patch_26">
    <path d="M 421.643789 317.226077 
L 471.568756 375.933076 
" clip-path="url(#p4d1f98cc57)" style="fill: none; stroke: #444444; stroke-width: 2; stroke-linejoin: miter"/>
   </g>
   <g id="patch_27">
    <path d="M 421.643789 317.226077 
L 486.323414 319.056535 
" clip-path="url(#p4d1f98cc57)" style="fill: none; stroke: #444444; stroke-width: 2; stroke-linejoin: miter"/>
   </g>
   <g id="patch_28">
    <path d="M 421.643789 317.226077 
L 442.617066 399.578893 
" clip-path="url(#p4d1f98cc57)" style="fill: none; stroke: #444444; stroke-width: 2; stroke-linejoin: miter"/>
   </g>
   <g id="patch_29">
    <path d="M 448.373674 242.337133 
L 516.688636 191.751149 
" clip-path="url(#p4d1f98cc57)" style="fill: none; stroke: #444444; stroke-width: 2; stroke-linejoin: miter"/>
   </g>
   <g id="patch_30">
    <path d="M 448.373674 242.337133 
L 482.293444 187.127634 
" clip-path="url(#p4d1f98cc57)" style="fill: none; stroke: #444444; stroke-width: 2; stroke-linejoin: miter"/>
   </g>
   <g id="patch_31">
    <path d="M 448.373674 242.337133 
L 530.173583 265.269792 
" clip-path="url(#p4d1f98cc57)" style="fill: none; stroke: #444444; stroke-width: 2; stroke-linejoin: miter"/>
   </g>
   <g id="patch_32">
    <path d="M 448.373674 242.337133 
L 524.133906 228.394592 
" clip-path="url(#p4d1f98cc57)" style="fill: none; stroke: #444444; stroke-width: 2; stroke-linejoin: miter"/>
   </g>
   <g id="patch_33">
    <path d="M 448.373674 242.337133 
L 499.707784 281.887749 
" clip-path="url(#p4d1f98cc57)" style="fill: none; stroke: #444444; stroke-width: 2; stroke-linejoin: miter"/>
   </g>
   <g id="patch_34">
    <path d="M 397.030477 182.250411 
L 457.379231 122.514278 
" clip-path="url(#p4d1f98cc57)" style="fill: none; stroke: #444444; stroke-width: 2; stroke-linejoin: miter"/>
   </g>
   <g id="patch_35">
    <path d="M 397.030477 182.250411 
L 422.519171 109.044071 
" clip-path="url(#p4d1f98cc57)" style="fill: none; stroke: #444444; stroke-width: 2; stroke-linejoin: miter"/>
   </g>
   <g id="patch_36">
    <path d="M 397.030477 182.250411 
L 365.912747 127.367649 
" clip-path="url(#p4d1f98cc57)" style="fill: none; stroke: #444444; stroke-width: 2; stroke-linejoin: miter"/>
   </g>
   <g id="patch_37">
    <path d="M 397.030477 182.250411 
L 386.886439 98.177652 
" clip-path="url(#p4d1f98cc57)" style="fill: none; stroke: #444444; stroke-width: 2; stroke-linejoin: miter"/>
   </g>
   <g id="patch_38">
    <path d="M 397.030477 182.250411 
L 456.974613 157.156534 
" clip-path="url(#p4d1f98cc57)" style="fill: none; stroke: #444444; stroke-width: 2; stroke-linejoin: miter"/>
   </g>
   <g id="matplotlib.axis_1"/>
   <g id="matplotlib.axis_2"/>
   <g id="patch_39">
    <path d="M 370.254538 276.002377 
C 375.366713 276.002377 380.270194 273.971289 383.885048 270.356435 
C 387.499901 266.741581 389.53099 261.8381 389.53099 256.725925 
C 389.53099 251.61375 387.499901 246.710268 383.885048 243.095415 
C 380.270194 239.480561 375.366713 237.449472 370.254538 237.449472 
C 365.142363 237.449472 360.238881 239.480561 356.624027 243.095415 
C 353.009174 246.710268 350.978085 251.61375 350.978085 256.725925 
C 350.978085 261.8381 353.009174 266.741581 356.624027 270.356435 
C 360.238881 273.971289 365.142363 276.002377 370.254538 276.002377 
z
" clip-path="url(#p4d1f98cc57)" style="fill: #ff0000; stroke: #000000; stroke-linejoin: miter"/>
   </g>
   <g id="patch_40">
    <path d="M 319.652362 215.344131 
C 324.764537 215.344131 329.668018 213.313043 333.282872 209.698189 
C 336.897726 206.083335 338.928814 201.179854 338.928814 196.067679 
C 338.928814 190.955504 336.897726 186.052022 333.282872 182.437169 
C 329.668018 178.822315 324.764537 176.791227 319.652362 176.791227 
C 314.540187 176.791227 309.636705 178.822315 306.021852 182.437169 
C 302.406998 186.052022 300.375909 190.955504 300.375909 196.067679 
C 300.375909 201.179854 302.406998 206.083335 306.021852 209.698189 
C 309.636705 213.313043 314.540187 215.344131 319.652362 215.344131 
z
" clip-path="url(#p4d1f98cc57)" style="fill: #ff0000; stroke: #000000; stroke-linejoin: miter"/>
   </g>
   <g id="patch_41">
    <path d="M 343.562586 350.790989 
C 348.674761 350.790989 353.578243 348.7599 357.193096 345.145047 
C 360.80795 341.530193 362.839039 336.626711 362.839039 331.514536 
C 362.839039 326.402361 360.80795 321.49888 357.193096 317.884026 
C 353.578243 314.269173 348.674761 312.238084 343.562586 312.238084 
C 338.450411 312.238084 333.54693 314.269173 329.932076 317.884026 
C 326.317223 321.49888 324.286134 326.402361 324.286134 331.514536 
C 324.286134 336.626711 326.317223 341.530193 329.932076 345.145047 
C 333.54693 348.7599 338.450411 350.790989 343.562586 350.790989 
z
" clip-path="url(#p4d1f98cc57)" style="fill: #ff0000; stroke: #000000; stroke-linejoin: miter"/>
   </g>
   <g id="patch_42">
    <path d="M 448.373674 261.613586 
C 453.485849 261.613586 458.389331 259.582497 462.004185 255.967643 
C 465.619038 252.35279 467.650127 247.449308 467.650127 242.337133 
C 467.650127 237.224958 465.619038 232.321477 462.004185 228.706623 
C 458.389331 225.09177 453.485849 223.060681 448.373674 223.060681 
C 443.261499 223.060681 438.358018 225.09177 434.743164 228.706623 
C 431.128311 232.321477 429.097222 237.224958 429.097222 242.337133 
C 429.097222 247.449308 431.128311 252.35279 434.743164 255.967643 
C 438.358018 259.582497 443.261499 261.613586 448.373674 261.613586 
z
" clip-path="url(#p4d1f98cc57)" style="fill: #ff0000; stroke: #000000; stroke-linejoin: miter"/>
   </g>
   <g id="patch_43">
    <path d="M 292.211077 289.977057 
C 297.323251 289.977057 302.226733 287.945968 305.841587 284.331115 
C 309.45644 280.716261 311.487529 275.81278 311.487529 270.700605 
C 311.487529 265.58843 309.45644 260.684948 305.841587 257.070095 
C 302.226733 253.455241 297.323251 251.424152 292.211077 251.424152 
C 287.098902 251.424152 282.19542 253.455241 278.580566 257.070095 
C 274.965713 260.684948 272.934624 265.58843 272.934624 270.700605 
C 272.934624 275.81278 274.965713 280.716261 278.580566 284.331115 
C 282.19542 287.945968 287.098902 289.977057 292.211077 289.977057 
z
" clip-path="url(#p4d1f98cc57)" style="fill: #ff0000; stroke: #000000; stroke-linejoin: miter"/>
   </g>
   <g id="patch_44">
    <path d="M 421.643789 336.502529 
C 426.755964 336.502529 431.659445 334.471441 435.274299 330.856587 
C 438.889152 327.241734 440.920241 322.338252 440.920241 317.226077 
C 440.920241 312.113902 438.889152 307.21042 435.274299 303.595567 
C 431.659445 299.980713 426.755964 297.949625 421.643789 297.949625 
C 416.531614 297.949625 411.628132 299.980713 408.013279 303.595567 
C 404.398425 307.21042 402.367336 312.113902 402.367336 317.226077 
C 402.367336 322.338252 404.398425 327.241734 408.013279 330.856587 
C 411.628132 334.471441 416.531614 336.502529 421.643789 336.502529 
z
" clip-path="url(#p4d1f98cc57)" style="fill: #ff0000; stroke: #000000; stroke-linejoin: miter"/>
   </g>
   <g id="patch_45">
    <path d="M 397.030477 201.526863 
C 402.142652 201.526863 407.046134 199.495775 410.660987 195.880921 
C 414.275841 192.266068 416.30693 187.362586 416.30693 182.250411 
C 416.30693 177.138236 414.275841 172.234755 410.660987 168.619901 
C 407.046134 165.005047 402.142652 162.973959 397.030477 162.973959 
C 391.918302 162.973959 387.014821 165.005047 383.399967 168.619901 
C 379.785113 172.234755 377.754025 177.138236 377.754025 182.250411 
C 377.754025 187.362586 379.785113 192.266068 383.399967 195.880921 
C 387.014821 199.495775 391.918302 201.526863 397.030477 201.526863 
z
" clip-path="url(#p4d1f98cc57)" style="fill: #ff0000; stroke: #000000; stroke-linejoin: miter"/>
   </g>
   <g id="patch_46">
    <path d="M 322.549564 132.283461 
C 327.661739 132.283461 332.56522 130.252372 336.180074 126.637519 
C 339.794927 123.022665 341.826016 118.119183 341.826016 113.007009 
C 341.826016 107.894834 339.794927 102.991352 336.180074 99.376498 
C 332.56522 95.761645 327.661739 93.730556 322.549564 93.730556 
C 317.437389 93.730556 312.533907 95.761645 308.919053 99.376498 
C 305.3042 102.991352 303.273111 107.894834 303.273111 113.007009 
C 303.273111 118.119183 305.3042 123.022665 308.919053 126.637519 
C 312.533907 130.252372 317.437389 132.283461 322.549564 132.283461 
z
" clip-path="url(#p4d1f98cc57)" style="fill: #ff0000; stroke: #000000; stroke-linejoin: miter"/>
   </g>
   <g id="patch_47">
    <path d="M 242.82027 181.21871 
C 247.932445 181.21871 252.835927 179.187621 256.45078 175.572768 
C 260.065634 171.957914 262.096722 167.054432 262.096722 161.942257 
C 262.096722 156.830083 260.065634 151.926601 256.45078 148.311747 
C 252.835927 144.696894 247.932445 142.665805 242.82027 142.665805 
C 237.708095 142.665805 232.804613 144.696894 229.18976 148.311747 
C 225.574906 151.926601 223.543818 156.830083 223.543818 161.942257 
C 223.543818 167.054432 225.574906 171.957914 229.18976 175.572768 
C 232.804613 179.187621 237.708095 181.21871 242.82027 181.21871 
z
" clip-path="url(#p4d1f98cc57)" style="fill: #ff0000; stroke: #000000; stroke-linejoin: miter"/>
   </g>
   <g id="patch_48">
    <path d="M 254.61064 214.65143 
C 259.722815 214.65143 264.626296 212.620341 268.24115 209.005488 
C 271.856004 205.390634 273.887092 200.487153 273.887092 195.374978 
C 273.887092 190.262803 271.856004 185.359321 268.24115 181.744467 
C 264.626296 178.129614 259.722815 176.098525 254.61064 176.098525 
C 249.498465 176.098525 244.594983 178.129614 240.98013 181.744467 
C 237.365276 185.359321 235.334187 190.262803 235.334187 195.374978 
C 235.334187 200.487153 237.365276 205.390634 240.98013 209.005488 
C 244.594983 212.620341 249.498465 214.65143 254.61064 214.65143 
z
" clip-path="url(#p4d1f98cc57)" style="fill: #ff0000; stroke: #000000; stroke-linejoin: miter"/>
   </g>
   <g id="patch_49">
    <path d="M 302.472265 158.122614 
C 307.58444 158.122614 312.487922 156.091525 316.102775 152.476672 
C 319.717629 148.861818 321.748717 143.958336 321.748717 138.846161 
C 321.748717 133.733986 319.717629 128.830505 316.102775 125.215651 
C 312.487922 121.600798 307.58444 119.569709 302.472265 119.569709 
C 297.36009 119.569709 292.456608 121.600798 288.841755 125.215651 
C 285.226901 128.830505 283.195813 133.733986 283.195813 138.846161 
C 283.195813 143.958336 285.226901 148.861818 288.841755 152.476672 
C 292.456608 156.091525 297.36009 158.122614 302.472265 158.122614 
z
" clip-path="url(#p4d1f98cc57)" style="fill: #ff0000; stroke: #000000; stroke-linejoin: miter"/>
   </g>
   <g id="patch_50">
    <path d="M 267.43794 147.909912 
C 272.550115 147.909912 277.453597 145.878823 281.06845 142.26397 
C 284.683304 138.649116 286.714392 133.745634 286.714392 128.633459 
C 286.714392 123.521285 284.683304 118.617803 281.06845 115.002949 
C 277.453597 111.388096 272.550115 109.357007 267.43794 109.357007 
C 262.325765 109.357007 257.422283 111.388096 253.80743 115.002949 
C 250.192576 118.617803 248.161488 123.521285 248.161488 128.633459 
C 248.161488 133.745634 250.192576 138.649116 253.80743 142.26397 
C 257.422283 145.878823 262.325765 147.909912 267.43794 147.909912 
z
" clip-path="url(#p4d1f98cc57)" style="fill: #ff0000; stroke: #000000; stroke-linejoin: miter"/>
   </g>
   <g id="patch_51">
    <path d="M 374.271321 407.877161 
C 379.383496 407.877161 384.286977 405.846072 387.901831 402.231218 
C 391.516684 398.616365 393.547773 393.712883 393.547773 388.600708 
C 393.547773 383.488533 391.516684 378.585052 387.901831 374.970198 
C 384.286977 371.355344 379.383496 369.324256 374.271321 369.324256 
C 369.159146 369.324256 364.255664 371.355344 360.64081 374.970198 
C 357.025957 378.585052 354.994868 383.488533 354.994868 388.600708 
C 354.994868 393.712883 357.025957 398.616365 360.64081 402.231218 
C 364.255664 405.846072 369.159146 407.877161 374.271321 407.877161 
z
" clip-path="url(#p4d1f98cc57)" style="fill: #ff0000; stroke: #000000; stroke-linejoin: miter"/>
   </g>
   <g id="patch_52">
    <path d="M 352.95172 435.2292 
C 358.063895 435.2292 362.967377 433.198111 366.58223 429.583258 
C 370.197084 425.968404 372.228172 421.064923 372.228172 415.952748 
C 372.228172 410.840573 370.197084 405.937091 366.58223 402.322238 
C 362.967377 398.707384 358.063895 396.676295 352.95172 396.676295 
C 347.839545 396.676295 342.936064 398.707384 339.32121 402.322238 
C 335.706356 405.937091 333.675268 410.840573 333.675268 415.952748 
C 333.675268 421.064923 335.706356 425.968404 339.32121 429.583258 
C 342.936064 433.198111 347.839545 435.2292 352.95172 435.2292 
z
" clip-path="url(#p4d1f98cc57)" style="fill: #ff0000; stroke: #000000; stroke-linejoin: miter"/>
   </g>
   <g id="patch_53">
    <path d="M 282.462864 409.992394 
C 287.575039 409.992394 292.478521 407.961305 296.093374 404.346451 
C 299.708228 400.731598 301.739316 395.828116 301.739316 390.715941 
C 301.739316 385.603766 299.708228 380.700285 296.093374 377.085431 
C 292.478521 373.470578 287.575039 371.439489 282.462864 371.439489 
C 277.350689 371.439489 272.447208 373.470578 268.832354 377.085431 
C 265.2175 380.700285 263.186412 385.603766 263.186412 390.715941 
C 263.186412 395.828116 265.2175 400.731598 268.832354 404.346451 
C 272.447208 407.961305 277.350689 409.992394 282.462864 409.992394 
z
" clip-path="url(#p4d1f98cc57)" style="fill: #ff0000; stroke: #000000; stroke-linejoin: miter"/>
   </g>
   <g id="patch_54">
    <path d="M 317.47084 423.425959 
C 322.583015 423.425959 327.486496 421.394871 331.10135 417.780017 
C 334.716203 414.165164 336.747292 409.261682 336.747292 404.149507 
C 336.747292 399.037332 334.716203 394.133851 331.10135 390.518997 
C 327.486496 386.904143 322.583015 384.873055 317.47084 384.873055 
C 312.358665 384.873055 307.455183 386.904143 303.84033 390.518997 
C 300.225476 394.133851 298.194387 399.037332 298.194387 404.149507 
C 298.194387 409.261682 300.225476 414.165164 303.84033 417.780017 
C 307.455183 421.394871 312.358665 423.425959 317.47084 423.425959 
z
" clip-path="url(#p4d1f98cc57)" style="fill: #ff0000; stroke: #000000; stroke-linejoin: miter"/>
   </g>
   <g id="patch_55">
    <path d="M 284.088869 375.191171 
C 289.201044 375.191171 294.104526 373.160082 297.719379 369.545229 
C 301.334233 365.930375 303.365321 361.026893 303.365321 355.914718 
C 303.365321 350.802543 301.334233 345.899062 297.719379 342.284208 
C 294.104526 338.669355 289.201044 336.638266 284.088869 336.638266 
C 278.976694 336.638266 274.073212 338.669355 270.458359 342.284208 
C 266.843505 345.899062 264.812417 350.802543 264.812417 355.914718 
C 264.812417 361.026893 266.843505 365.930375 270.458359 369.545229 
C 274.073212 373.160082 278.976694 375.191171 284.088869 375.191171 
z
" clip-path="url(#p4d1f98cc57)" style="fill: #ff0000; stroke: #000000; stroke-linejoin: miter"/>
   </g>
   <g id="patch_56">
    <path d="M 236.057359 275.328261 
C 241.169534 275.328261 246.073015 273.297173 249.687869 269.682319 
C 253.302723 266.067466 255.333811 261.163984 255.333811 256.051809 
C 255.333811 250.939634 253.302723 246.036152 249.687869 242.421299 
C 246.073015 238.806445 241.169534 236.775357 236.057359 236.775357 
C 230.945184 236.775357 226.041702 238.806445 222.426849 242.421299 
C 218.811995 246.036152 216.780907 250.939634 216.780907 256.051809 
C 216.780907 261.163984 218.811995 266.067466 222.426849 269.682319 
C 226.041702 273.297173 230.945184 275.328261 236.057359 275.328261 
z
" clip-path="url(#p4d1f98cc57)" style="fill: #ff0000; stroke: #000000; stroke-linejoin: miter"/>
   </g>
   <g id="patch_57">
    <path d="M 256.373771 347.395867 
C 261.485946 347.395867 266.389427 345.364778 270.004281 341.749925 
C 273.619134 338.135071 275.650223 333.231589 275.650223 328.119414 
C 275.650223 323.00724 273.619134 318.103758 270.004281 314.488904 
C 266.389427 310.874051 261.485946 308.842962 256.373771 308.842962 
C 251.261596 308.842962 246.358114 310.874051 242.743261 314.488904 
C 239.128407 318.103758 237.097318 323.00724 237.097318 328.119414 
C 237.097318 333.231589 239.128407 338.135071 242.743261 341.749925 
C 246.358114 345.364778 251.261596 347.395867 256.373771 347.395867 
z
" clip-path="url(#p4d1f98cc57)" style="fill: #ff0000; stroke: #000000; stroke-linejoin: miter"/>
   </g>
   <g id="patch_58">
    <path d="M 207.826417 300.141659 
C 212.938592 300.141659 217.842073 298.11057 221.456927 294.495716 
C 225.07178 290.880863 227.102869 285.977381 227.102869 280.865206 
C 227.102869 275.753031 225.07178 270.84955 221.456927 267.234696 
C 217.842073 263.619842 212.938592 261.588754 207.826417 261.588754 
C 202.714242 261.588754 197.81076 263.619842 194.195907 267.234696 
C 190.581053 270.84955 188.549964 275.753031 188.549964 280.865206 
C 188.549964 285.977381 190.581053 290.880863 194.195907 294.495716 
C 197.81076 298.11057 202.714242 300.141659 207.826417 300.141659 
z
" clip-path="url(#p4d1f98cc57)" style="fill: #ff0000; stroke: #000000; stroke-linejoin: miter"/>
   </g>
   <g id="patch_59">
    <path d="M 223.418806 338.311213 
C 228.530981 338.311213 233.434463 336.280124 237.049317 332.665271 
C 240.66417 329.050417 242.695259 324.146935 242.695259 319.03476 
C 242.695259 313.922585 240.66417 309.019104 237.049317 305.40425 
C 233.434463 301.789397 228.530981 299.758308 223.418806 299.758308 
C 218.306632 299.758308 213.40315 301.789397 209.788296 305.40425 
C 206.173443 309.019104 204.142354 313.922585 204.142354 319.03476 
C 204.142354 324.146935 206.173443 329.050417 209.788296 332.665271 
C 213.40315 336.280124 218.306632 338.311213 223.418806 338.311213 
z
" clip-path="url(#p4d1f98cc57)" style="fill: #ff0000; stroke: #000000; stroke-linejoin: miter"/>
   </g>
   <g id="patch_60">
    <path d="M 220.816431 246.10954 
C 225.928606 246.10954 230.832088 244.078452 234.446941 240.463598 
C 238.061795 236.848744 240.092883 231.945263 240.092883 226.833088 
C 240.092883 221.720913 238.061795 216.817431 234.446941 213.202578 
C 230.832088 209.587724 225.928606 207.556636 220.816431 207.556636 
C 215.704256 207.556636 210.800774 209.587724 207.185921 213.202578 
C 203.571067 216.817431 201.539979 221.720913 201.539979 226.833088 
C 201.539979 231.945263 203.571067 236.848744 207.185921 240.463598 
C 210.800774 244.078452 215.704256 246.10954 220.816431 246.10954 
z
" clip-path="url(#p4d1f98cc57)" style="fill: #ff0000; stroke: #000000; stroke-linejoin: miter"/>
   </g>
   <g id="patch_61">
    <path d="M 499.576186 370.417038 
C 504.688361 370.417038 509.591843 368.38595 513.206696 364.771096 
C 516.82155 361.156243 518.852638 356.252761 518.852638 351.140586 
C 518.852638 346.028411 516.82155 341.12493 513.206696 337.510076 
C 509.591843 333.895222 504.688361 331.864134 499.576186 331.864134 
C 494.464011 331.864134 489.56053 333.895222 485.945676 337.510076 
C 482.330822 341.12493 480.299734 346.028411 480.299734 351.140586 
C 480.299734 356.252761 482.330822 361.156243 485.945676 364.771096 
C 489.56053 368.38595 494.464011 370.417038 499.576186 370.417038 
z
" clip-path="url(#p4d1f98cc57)" style="fill: #ff0000; stroke: #000000; stroke-linejoin: miter"/>
   </g>
   <g id="patch_62">
    <path d="M 413.03047 400.693865 
C 418.142645 400.693865 423.046126 398.662776 426.66098 395.047923 
C 430.275833 391.433069 432.306922 386.529587 432.306922 381.417412 
C 432.306922 376.305237 430.275833 371.401756 426.66098 367.786902 
C 423.046126 364.172049 418.142645 362.14096 413.03047 362.14096 
C 407.918295 362.14096 403.014813 364.172049 399.399959 367.786902 
C 395.785106 371.401756 393.754017 376.305237 393.754017 381.417412 
C 393.754017 386.529587 395.785106 391.433069 399.399959 395.047923 
C 403.014813 398.662776 407.918295 400.693865 413.03047 400.693865 
z
" clip-path="url(#p4d1f98cc57)" style="fill: #ff0000; stroke: #000000; stroke-linejoin: miter"/>
   </g>
   <g id="patch_63">
    <path d="M 471.568756 395.209529 
C 476.680931 395.209529 481.584413 393.17844 485.199267 389.563586 
C 488.81412 385.948733 490.845209 381.045251 490.845209 375.933076 
C 490.845209 370.820901 488.81412 365.91742 485.199267 362.302566 
C 481.584413 358.687713 476.680931 356.656624 471.568756 356.656624 
C 466.456581 356.656624 461.5531 358.687713 457.938246 362.302566 
C 454.323393 365.91742 452.292304 370.820901 452.292304 375.933076 
C 452.292304 381.045251 454.323393 385.948733 457.938246 389.563586 
C 461.5531 393.17844 466.456581 395.209529 471.568756 395.209529 
z
" clip-path="url(#p4d1f98cc57)" style="fill: #ff0000; stroke: #000000; stroke-linejoin: miter"/>
   </g>
   <g id="patch_64">
    <path d="M 486.323414 338.332988 
C 491.435589 338.332988 496.339071 336.301899 499.953924 332.687045 
C 503.568778 329.072192 505.599866 324.16871 505.599866 319.056535 
C 505.599866 313.94436 503.568778 309.040879 499.953924 305.426025 
C 496.339071 301.811172 491.435589 299.780083 486.323414 299.780083 
C 481.211239 299.780083 476.307757 301.811172 472.692904 305.426025 
C 469.07805 309.040879 467.046962 313.94436 467.046962 319.056535 
C 467.046962 324.16871 469.07805 329.072192 472.692904 332.687045 
C 476.307757 336.301899 481.211239 338.332988 486.323414 338.332988 
z
" clip-path="url(#p4d1f98cc57)" style="fill: #ff0000; stroke: #000000; stroke-linejoin: miter"/>
   </g>
   <g id="patch_65">
    <path d="M 442.617066 418.855345 
C 447.729241 418.855345 452.632723 416.824257 456.247576 413.209403 
C 459.86243 409.594549 461.893519 404.691068 461.893519 399.578893 
C 461.893519 394.466718 459.86243 389.563236 456.247576 385.948383 
C 452.632723 382.333529 447.729241 380.30244 442.617066 380.30244 
C 437.504891 380.30244 432.60141 382.333529 428.986556 385.948383 
C 425.371703 389.563236 423.340614 394.466718 423.340614 399.578893 
C 423.340614 404.691068 425.371703 409.594549 428.986556 413.209403 
C 432.60141 416.824257 437.504891 418.855345 442.617066 418.855345 
z
" clip-path="url(#p4d1f98cc57)" style="fill: #ff0000; stroke: #000000; stroke-linejoin: miter"/>
   </g>
   <g id="patch_66">
    <path d="M 516.688636 211.027601 
C 521.800811 211.027601 526.704293 208.996513 530.319146 205.381659 
C 533.934 201.766805 535.965089 196.863324 535.965089 191.751149 
C 535.965089 186.638974 533.934 181.735492 530.319146 178.120639 
C 526.704293 174.505785 521.800811 172.474696 516.688636 172.474696 
C 511.576461 172.474696 506.67298 174.505785 503.058126 178.120639 
C 499.443273 181.735492 497.412184 186.638974 497.412184 191.751149 
C 497.412184 196.863324 499.443273 201.766805 503.058126 205.381659 
C 506.67298 208.996513 511.576461 211.027601 516.688636 211.027601 
z
" clip-path="url(#p4d1f98cc57)" style="fill: #ff0000; stroke: #000000; stroke-linejoin: miter"/>
   </g>
   <g id="patch_67">
    <path d="M 482.293444 206.404086 
C 487.405619 206.404086 492.3091 204.372997 495.923954 200.758144 
C 499.538807 197.14329 501.569896 192.239809 501.569896 187.127634 
C 501.569896 182.015459 499.538807 177.111977 495.923954 173.497124 
C 492.3091 169.88227 487.405619 167.851181 482.293444 167.851181 
C 477.181269 167.851181 472.277787 169.88227 468.662933 173.497124 
C 465.04808 177.111977 463.016991 182.015459 463.016991 187.127634 
C 463.016991 192.239809 465.04808 197.14329 468.662933 200.758144 
C 472.277787 204.372997 477.181269 206.404086 482.293444 206.404086 
z
" clip-path="url(#p4d1f98cc57)" style="fill: #ff0000; stroke: #000000; stroke-linejoin: miter"/>
   </g>
   <g id="patch_68">
    <path d="M 530.173583 284.546245 
C 535.285758 284.546245 540.18924 282.515156 543.804093 278.900303 
C 547.418947 275.285449 549.450036 270.381967 549.450036 265.269792 
C 549.450036 260.157617 547.418947 255.254136 543.804093 251.639282 
C 540.18924 248.024429 535.285758 245.99334 530.173583 245.99334 
C 525.061408 245.99334 520.157927 248.024429 516.543073 251.639282 
C 512.92822 255.254136 510.897131 260.157617 510.897131 265.269792 
C 510.897131 270.381967 512.92822 275.285449 516.543073 278.900303 
C 520.157927 282.515156 525.061408 284.546245 530.173583 284.546245 
z
" clip-path="url(#p4d1f98cc57)" style="fill: #ff0000; stroke: #000000; stroke-linejoin: miter"/>
   </g>
   <g id="patch_69">
    <path d="M 524.133906 247.671044 
C 529.246081 247.671044 534.149563 245.639956 537.764416 242.025102 
C 541.37927 238.410248 543.410359 233.506767 543.410359 228.394592 
C 543.410359 223.282417 541.37927 218.378935 537.764416 214.764082 
C 534.149563 211.149228 529.246081 209.118139 524.133906 209.118139 
C 519.021731 209.118139 514.11825 211.149228 510.503396 214.764082 
C 506.888542 218.378935 504.857454 223.282417 504.857454 228.394592 
C 504.857454 233.506767 506.888542 238.410248 510.503396 242.025102 
C 514.11825 245.639956 519.021731 247.671044 524.133906 247.671044 
z
" clip-path="url(#p4d1f98cc57)" style="fill: #ff0000; stroke: #000000; stroke-linejoin: miter"/>
   </g>
   <g id="patch_70">
    <path d="M 499.707784 301.164201 
C 504.819959 301.164201 509.72344 299.133112 513.338294 295.518259 
C 516.953148 291.903405 518.984236 286.999923 518.984236 281.887749 
C 518.984236 276.775574 516.953148 271.872092 513.338294 268.257238 
C 509.72344 264.642385 504.819959 262.611296 499.707784 262.611296 
C 494.595609 262.611296 489.692127 264.642385 486.077274 268.257238 
C 482.46242 271.872092 480.431332 276.775574 480.431332 281.887749 
C 480.431332 286.999923 482.46242 291.903405 486.077274 295.518259 
C 489.692127 299.133112 494.595609 301.164201 499.707784 301.164201 
z
" clip-path="url(#p4d1f98cc57)" style="fill: #ff0000; stroke: #000000; stroke-linejoin: miter"/>
   </g>
   <g id="patch_71">
    <path d="M 457.379231 141.790731 
C 462.491406 141.790731 467.394888 139.759642 471.009742 136.144788 
C 474.624595 132.529935 476.655684 127.626453 476.655684 122.514278 
C 476.655684 117.402103 474.624595 112.498622 471.009742 108.883768 
C 467.394888 105.268915 462.491406 103.237826 457.379231 103.237826 
C 452.267056 103.237826 447.363575 105.268915 443.748721 108.883768 
C 440.133868 112.498622 438.102779 117.402103 438.102779 122.514278 
C 438.102779 127.626453 440.133868 132.529935 443.748721 136.144788 
C 447.363575 139.759642 452.267056 141.790731 457.379231 141.790731 
z
" clip-path="url(#p4d1f98cc57)" style="fill: #ff0000; stroke: #000000; stroke-linejoin: miter"/>
   </g>
   <g id="patch_72">
    <path d="M 422.519171 128.320523 
C 427.631346 128.320523 432.534828 126.289434 436.149681 122.674581 
C 439.764535 119.059727 441.795623 114.156245 441.795623 109.044071 
C 441.795623 103.931896 439.764535 99.028414 436.149681 95.41356 
C 432.534828 91.798707 427.631346 89.767618 422.519171 89.767618 
C 417.406996 89.767618 412.503515 91.798707 408.888661 95.41356 
C 405.273807 99.028414 403.242719 103.931896 403.242719 109.044071 
C 403.242719 114.156245 405.273807 119.059727 408.888661 122.674581 
C 412.503515 126.289434 417.406996 128.320523 422.519171 128.320523 
z
" clip-path="url(#p4d1f98cc57)" style="fill: #ff0000; stroke: #000000; stroke-linejoin: miter"/>
   </g>
   <g id="patch_73">
    <path d="M 365.912747 146.644102 
C 371.024922 146.644102 375.928403 144.613013 379.543257 140.998159 
C 383.158111 137.383306 385.189199 132.479824 385.189199 127.367649 
C 385.189199 122.255474 383.158111 117.351993 379.543257 113.737139 
C 375.928403 110.122286 371.024922 108.091197 365.912747 108.091197 
C 360.800572 108.091197 355.89709 110.122286 352.282237 113.737139 
C 348.667383 117.351993 346.636295 122.255474 346.636295 127.367649 
C 346.636295 132.479824 348.667383 137.383306 352.282237 140.998159 
C 355.89709 144.613013 360.800572 146.644102 365.912747 146.644102 
z
" clip-path="url(#p4d1f98cc57)" style="fill: #ff0000; stroke: #000000; stroke-linejoin: miter"/>
   </g>
   <g id="patch_74">
    <path d="M 386.886439 117.454105 
C 391.998614 117.454105 396.902096 115.423016 400.516949 111.808162 
C 404.131803 108.193309 406.162891 103.289827 406.162891 98.177652 
C 406.162891 93.065477 404.131803 88.161996 400.516949 84.547142 
C 396.902096 80.932289 391.998614 78.9012 386.886439 78.9012 
C 381.774264 78.9012 376.870783 80.932289 373.255929 84.547142 
C 369.641075 88.161996 367.609987 93.065477 367.609987 98.177652 
C 367.609987 103.289827 369.641075 108.193309 373.255929 111.808162 
C 376.870783 115.423016 381.774264 117.454105 386.886439 117.454105 
z
" clip-path="url(#p4d1f98cc57)" style="fill: #ff0000; stroke: #000000; stroke-linejoin: miter"/>
   </g>
   <g id="patch_75">
    <path d="M 456.974613 176.432986 
C 462.086787 176.432986 466.990269 174.401897 470.605123 170.787044 
C 474.219976 167.17219 476.251065 162.268709 476.251065 157.156534 
C 476.251065 152.044359 474.219976 147.140877 470.605123 143.526024 
C 466.990269 139.91117 462.086787 137.880081 456.974613 137.880081 
C 451.862438 137.880081 446.958956 139.91117 443.344102 143.526024 
C 439.729249 147.140877 437.69816 152.044359 437.69816 157.156534 
C 437.69816 162.268709 439.729249 167.17219 443.344102 170.787044 
C 446.958956 174.401897 451.862438 176.432986 456.974613 176.432986 
z
" clip-path="url(#p4d1f98cc57)" style="fill: #ff0000; stroke: #000000; stroke-linejoin: miter"/>
   </g>
   <g id="text_1">
    <!-- genero -->
    <g transform="translate(359.755475 258.38155) scale(0.06 -0.06)">
     <defs>
      <path id="DejaVuSans-67" d="M 2906 1791 
Q 2906 2416 2648 2759 
Q 2391 3103 1925 3103 
Q 1463 3103 1205 2759 
Q 947 2416 947 1791 
Q 947 1169 1205 825 
Q 1463 481 1925 481 
Q 2391 481 2648 825 
Q 2906 1169 2906 1791 
z
M 3481 434 
Q 3481 -459 3084 -895 
Q 2688 -1331 1869 -1331 
Q 1566 -1331 1297 -1286 
Q 1028 -1241 775 -1147 
L 775 -588 
Q 1028 -725 1275 -790 
Q 1522 -856 1778 -856 
Q 2344 -856 2625 -561 
Q 2906 -266 2906 331 
L 2906 616 
Q 2728 306 2450 153 
Q 2172 0 1784 0 
Q 1141 0 747 490 
Q 353 981 353 1791 
Q 353 2603 747 3093 
Q 1141 3584 1784 3584 
Q 2172 3584 2450 3431 
Q 2728 3278 2906 2969 
L 2906 3500 
L 3481 3500 
L 3481 434 
z
" transform="scale(0.015625)"/>
      <path id="DejaVuSans-65" d="M 3597 1894 
L 3597 1613 
L 953 1613 
Q 991 1019 1311 708 
Q 1631 397 2203 397 
Q 2534 397 2845 478 
Q 3156 559 3463 722 
L 3463 178 
Q 3153 47 2828 -22 
Q 2503 -91 2169 -91 
Q 1331 -91 842 396 
Q 353 884 353 1716 
Q 353 2575 817 3079 
Q 1281 3584 2069 3584 
Q 2775 3584 3186 3129 
Q 3597 2675 3597 1894 
z
M 3022 2063 
Q 3016 2534 2758 2815 
Q 2500 3097 2075 3097 
Q 1594 3097 1305 2825 
Q 1016 2553 972 2059 
L 3022 2063 
z
" transform="scale(0.015625)"/>
      <path id="DejaVuSans-6e" d="M 3513 2113 
L 3513 0 
L 2938 0 
L 2938 2094 
Q 2938 2591 2744 2837 
Q 2550 3084 2163 3084 
Q 1697 3084 1428 2787 
Q 1159 2491 1159 1978 
L 1159 0 
L 581 0 
L 581 3500 
L 1159 3500 
L 1159 2956 
Q 1366 3272 1645 3428 
Q 1925 3584 2291 3584 
Q 2894 3584 3203 3211 
Q 3513 2838 3513 2113 
z
" transform="scale(0.015625)"/>
      <path id="DejaVuSans-72" d="M 2631 2963 
Q 2534 3019 2420 3045 
Q 2306 3072 2169 3072 
Q 1681 3072 1420 2755 
Q 1159 2438 1159 1844 
L 1159 0 
L 581 0 
L 581 3500 
L 1159 3500 
L 1159 2956 
Q 1341 3275 1631 3429 
Q 1922 3584 2338 3584 
Q 2397 3584 2469 3576 
Q 2541 3569 2628 3553 
L 2631 2963 
z
" transform="scale(0.015625)"/>
      <path id="DejaVuSans-6f" d="M 1959 3097 
Q 1497 3097 1228 2736 
Q 959 2375 959 1747 
Q 959 1119 1226 758 
Q 1494 397 1959 397 
Q 2419 397 2687 759 
Q 2956 1122 2956 1747 
Q 2956 2369 2687 2733 
Q 2419 3097 1959 3097 
z
M 1959 3584 
Q 2709 3584 3137 3096 
Q 3566 2609 3566 1747 
Q 3566 888 3137 398 
Q 2709 -91 1959 -91 
Q 1206 -91 779 398 
Q 353 888 353 1747 
Q 353 2609 779 3096 
Q 1206 3584 1959 3584 
z
" transform="scale(0.015625)"/>
     </defs>
     <use xlink:href="#DejaVuSans-67"/>
     <use xlink:href="#DejaVuSans-65" x="63.476562"/>
     <use xlink:href="#DejaVuSans-6e" x="125"/>
     <use xlink:href="#DejaVuSans-65" x="188.378906"/>
     <use xlink:href="#DejaVuSans-72" x="249.902344"/>
     <use xlink:href="#DejaVuSans-6f" x="288.765625"/>
    </g>
   </g>
   <g id="text_2">
    <!-- acao -->
    <g transform="translate(312.490331 197.723304) scale(0.06 -0.06)">
     <defs>
      <path id="DejaVuSans-61" d="M 2194 1759 
Q 1497 1759 1228 1600 
Q 959 1441 959 1056 
Q 959 750 1161 570 
Q 1363 391 1709 391 
Q 2188 391 2477 730 
Q 2766 1069 2766 1631 
L 2766 1759 
L 2194 1759 
z
M 3341 1997 
L 3341 0 
L 2766 0 
L 2766 531 
Q 2569 213 2275 61 
Q 1981 -91 1556 -91 
Q 1019 -91 701 211 
Q 384 513 384 1019 
Q 384 1609 779 1909 
Q 1175 2209 1959 2209 
L 2766 2209 
L 2766 2266 
Q 2766 2663 2505 2880 
Q 2244 3097 1772 3097 
Q 1472 3097 1187 3025 
Q 903 2953 641 2809 
L 641 3341 
Q 956 3463 1253 3523 
Q 1550 3584 1831 3584 
Q 2591 3584 2966 3190 
Q 3341 2797 3341 1997 
z
" transform="scale(0.015625)"/>
      <path id="DejaVuSans-63" d="M 3122 3366 
L 3122 2828 
Q 2878 2963 2633 3030 
Q 2388 3097 2138 3097 
Q 1578 3097 1268 2742 
Q 959 2388 959 1747 
Q 959 1106 1268 751 
Q 1578 397 2138 397 
Q 2388 397 2633 464 
Q 2878 531 3122 666 
L 3122 134 
Q 2881 22 2623 -34 
Q 2366 -91 2075 -91 
Q 1284 -91 818 406 
Q 353 903 353 1747 
Q 353 2603 823 3093 
Q 1294 3584 2113 3584 
Q 2378 3584 2631 3529 
Q 2884 3475 3122 3366 
z
" transform="scale(0.015625)"/>
     </defs>
     <use xlink:href="#DejaVuSans-61"/>
     <use xlink:href="#DejaVuSans-63" x="61.279297"/>
     <use xlink:href="#DejaVuSans-61" x="116.259766"/>
     <use xlink:href="#DejaVuSans-6f" x="177.539062"/>
    </g>
   </g>
   <g id="text_3">
    <!-- comedia -->
    <g transform="translate(330.732899 333.170161) scale(0.06 -0.06)">
     <defs>
      <path id="DejaVuSans-6d" d="M 3328 2828 
Q 3544 3216 3844 3400 
Q 4144 3584 4550 3584 
Q 5097 3584 5394 3201 
Q 5691 2819 5691 2113 
L 5691 0 
L 5113 0 
L 5113 2094 
Q 5113 2597 4934 2840 
Q 4756 3084 4391 3084 
Q 3944 3084 3684 2787 
Q 3425 2491 3425 1978 
L 3425 0 
L 2847 0 
L 2847 2094 
Q 2847 2600 2669 2842 
Q 2491 3084 2119 3084 
Q 1678 3084 1418 2786 
Q 1159 2488 1159 1978 
L 1159 0 
L 581 0 
L 581 3500 
L 1159 3500 
L 1159 2956 
Q 1356 3278 1631 3431 
Q 1906 3584 2284 3584 
Q 2666 3584 2933 3390 
Q 3200 3197 3328 2828 
z
" transform="scale(0.015625)"/>
      <path id="DejaVuSans-64" d="M 2906 2969 
L 2906 4863 
L 3481 4863 
L 3481 0 
L 2906 0 
L 2906 525 
Q 2725 213 2448 61 
Q 2172 -91 1784 -91 
Q 1150 -91 751 415 
Q 353 922 353 1747 
Q 353 2572 751 3078 
Q 1150 3584 1784 3584 
Q 2172 3584 2448 3432 
Q 2725 3281 2906 2969 
z
M 947 1747 
Q 947 1113 1208 752 
Q 1469 391 1925 391 
Q 2381 391 2643 752 
Q 2906 1113 2906 1747 
Q 2906 2381 2643 2742 
Q 2381 3103 1925 3103 
Q 1469 3103 1208 2742 
Q 947 2381 947 1747 
z
" transform="scale(0.015625)"/>
      <path id="DejaVuSans-69" d="M 603 3500 
L 1178 3500 
L 1178 0 
L 603 0 
L 603 3500 
z
M 603 4863 
L 1178 4863 
L 1178 4134 
L 603 4134 
L 603 4863 
z
" transform="scale(0.015625)"/>
     </defs>
     <use xlink:href="#DejaVuSans-63"/>
     <use xlink:href="#DejaVuSans-6f" x="54.980469"/>
     <use xlink:href="#DejaVuSans-6d" x="116.162109"/>
     <use xlink:href="#DejaVuSans-65" x="213.574219"/>
     <use xlink:href="#DejaVuSans-64" x="275.097656"/>
     <use xlink:href="#DejaVuSans-69" x="338.574219"/>
     <use xlink:href="#DejaVuSans-61" x="366.357422"/>
    </g>
   </g>
   <g id="text_4">
    <!-- ficcao -->
    <g transform="translate(439.511018 243.992758) scale(0.06 -0.06)">
     <defs>
      <path id="DejaVuSans-66" d="M 2375 4863 
L 2375 4384 
L 1825 4384 
Q 1516 4384 1395 4259 
Q 1275 4134 1275 3809 
L 1275 3500 
L 2222 3500 
L 2222 3053 
L 1275 3053 
L 1275 0 
L 697 0 
L 697 3053 
L 147 3053 
L 147 3500 
L 697 3500 
L 697 3744 
Q 697 4328 969 4595 
Q 1241 4863 1831 4863 
L 2375 4863 
z
" transform="scale(0.015625)"/>
     </defs>
     <use xlink:href="#DejaVuSans-66"/>
     <use xlink:href="#DejaVuSans-69" x="35.205078"/>
     <use xlink:href="#DejaVuSans-63" x="62.988281"/>
     <use xlink:href="#DejaVuSans-63" x="117.96875"/>
     <use xlink:href="#DejaVuSans-61" x="172.949219"/>
     <use xlink:href="#DejaVuSans-6f" x="234.228516"/>
    </g>
   </g>
   <g id="text_5">
    <!-- terror -->
    <g transform="translate(283.773577 272.35623) scale(0.06 -0.06)">
     <defs>
      <path id="DejaVuSans-74" d="M 1172 4494 
L 1172 3500 
L 2356 3500 
L 2356 3053 
L 1172 3053 
L 1172 1153 
Q 1172 725 1289 603 
Q 1406 481 1766 481 
L 2356 481 
L 2356 0 
L 1766 0 
Q 1100 0 847 248 
Q 594 497 594 1153 
L 594 3053 
L 172 3053 
L 172 3500 
L 594 3500 
L 594 4494 
L 1172 4494 
z
" transform="scale(0.015625)"/>
     </defs>
     <use xlink:href="#DejaVuSans-74"/>
     <use xlink:href="#DejaVuSans-65" x="39.208984"/>
     <use xlink:href="#DejaVuSans-72" x="100.732422"/>
     <use xlink:href="#DejaVuSans-72" x="140.095703"/>
     <use xlink:href="#DejaVuSans-6f" x="178.958984"/>
     <use xlink:href="#DejaVuSans-72" x="240.140625"/>
    </g>
   </g>
   <g id="text_6">
    <!-- suspense -->
    <g transform="translate(407.556445 318.881702) scale(0.06 -0.06)">
     <defs>
      <path id="DejaVuSans-73" d="M 2834 3397 
L 2834 2853 
Q 2591 2978 2328 3040 
Q 2066 3103 1784 3103 
Q 1356 3103 1142 2972 
Q 928 2841 928 2578 
Q 928 2378 1081 2264 
Q 1234 2150 1697 2047 
L 1894 2003 
Q 2506 1872 2764 1633 
Q 3022 1394 3022 966 
Q 3022 478 2636 193 
Q 2250 -91 1575 -91 
Q 1294 -91 989 -36 
Q 684 19 347 128 
L 347 722 
Q 666 556 975 473 
Q 1284 391 1588 391 
Q 1994 391 2212 530 
Q 2431 669 2431 922 
Q 2431 1156 2273 1281 
Q 2116 1406 1581 1522 
L 1381 1569 
Q 847 1681 609 1914 
Q 372 2147 372 2553 
Q 372 3047 722 3315 
Q 1072 3584 1716 3584 
Q 2034 3584 2315 3537 
Q 2597 3491 2834 3397 
z
" transform="scale(0.015625)"/>
      <path id="DejaVuSans-75" d="M 544 1381 
L 544 3500 
L 1119 3500 
L 1119 1403 
Q 1119 906 1312 657 
Q 1506 409 1894 409 
Q 2359 409 2629 706 
Q 2900 1003 2900 1516 
L 2900 3500 
L 3475 3500 
L 3475 0 
L 2900 0 
L 2900 538 
Q 2691 219 2414 64 
Q 2138 -91 1772 -91 
Q 1169 -91 856 284 
Q 544 659 544 1381 
z
M 1991 3584 
L 1991 3584 
z
" transform="scale(0.015625)"/>
      <path id="DejaVuSans-70" d="M 1159 525 
L 1159 -1331 
L 581 -1331 
L 581 3500 
L 1159 3500 
L 1159 2969 
Q 1341 3281 1617 3432 
Q 1894 3584 2278 3584 
Q 2916 3584 3314 3078 
Q 3713 2572 3713 1747 
Q 3713 922 3314 415 
Q 2916 -91 2278 -91 
Q 1894 -91 1617 61 
Q 1341 213 1159 525 
z
M 3116 1747 
Q 3116 2381 2855 2742 
Q 2594 3103 2138 3103 
Q 1681 3103 1420 2742 
Q 1159 2381 1159 1747 
Q 1159 1113 1420 752 
Q 1681 391 2138 391 
Q 2594 391 2855 752 
Q 3116 1113 3116 1747 
z
" transform="scale(0.015625)"/>
     </defs>
     <use xlink:href="#DejaVuSans-73"/>
     <use xlink:href="#DejaVuSans-75" x="52.099609"/>
     <use xlink:href="#DejaVuSans-73" x="115.478516"/>
     <use xlink:href="#DejaVuSans-70" x="167.578125"/>
     <use xlink:href="#DejaVuSans-65" x="231.054688"/>
     <use xlink:href="#DejaVuSans-6e" x="292.578125"/>
     <use xlink:href="#DejaVuSans-73" x="355.957031"/>
     <use xlink:href="#DejaVuSans-65" x="408.056641"/>
    </g>
   </g>
   <g id="text_7">
    <!-- romance -->
    <g transform="translate(383.871727 183.906036) scale(0.06 -0.06)">
     <use xlink:href="#DejaVuSans-72"/>
     <use xlink:href="#DejaVuSans-6f" x="38.863281"/>
     <use xlink:href="#DejaVuSans-6d" x="100.044922"/>
     <use xlink:href="#DejaVuSans-61" x="197.457031"/>
     <use xlink:href="#DejaVuSans-6e" x="258.736328"/>
     <use xlink:href="#DejaVuSans-63" x="322.115234"/>
     <use xlink:href="#DejaVuSans-65" x="377.095703"/>
    </g>
   </g>
   <g id="text_8">
    <!-- drive(2011) -->
    <g transform="translate(304.980814 114.662634) scale(0.06 -0.06)">
     <defs>
      <path id="DejaVuSans-76" d="M 191 3500 
L 800 3500 
L 1894 563 
L 2988 3500 
L 3597 3500 
L 2284 0 
L 1503 0 
L 191 3500 
z
" transform="scale(0.015625)"/>
      <path id="DejaVuSans-28" d="M 1984 4856 
Q 1566 4138 1362 3434 
Q 1159 2731 1159 2009 
Q 1159 1288 1364 580 
Q 1569 -128 1984 -844 
L 1484 -844 
Q 1016 -109 783 600 
Q 550 1309 550 2009 
Q 550 2706 781 3412 
Q 1013 4119 1484 4856 
L 1984 4856 
z
" transform="scale(0.015625)"/>
      <path id="DejaVuSans-32" d="M 1228 531 
L 3431 531 
L 3431 0 
L 469 0 
L 469 531 
Q 828 903 1448 1529 
Q 2069 2156 2228 2338 
Q 2531 2678 2651 2914 
Q 2772 3150 2772 3378 
Q 2772 3750 2511 3984 
Q 2250 4219 1831 4219 
Q 1534 4219 1204 4116 
Q 875 4013 500 3803 
L 500 4441 
Q 881 4594 1212 4672 
Q 1544 4750 1819 4750 
Q 2544 4750 2975 4387 
Q 3406 4025 3406 3419 
Q 3406 3131 3298 2873 
Q 3191 2616 2906 2266 
Q 2828 2175 2409 1742 
Q 1991 1309 1228 531 
z
" transform="scale(0.015625)"/>
      <path id="DejaVuSans-30" d="M 2034 4250 
Q 1547 4250 1301 3770 
Q 1056 3291 1056 2328 
Q 1056 1369 1301 889 
Q 1547 409 2034 409 
Q 2525 409 2770 889 
Q 3016 1369 3016 2328 
Q 3016 3291 2770 3770 
Q 2525 4250 2034 4250 
z
M 2034 4750 
Q 2819 4750 3233 4129 
Q 3647 3509 3647 2328 
Q 3647 1150 3233 529 
Q 2819 -91 2034 -91 
Q 1250 -91 836 529 
Q 422 1150 422 2328 
Q 422 3509 836 4129 
Q 1250 4750 2034 4750 
z
" transform="scale(0.015625)"/>
      <path id="DejaVuSans-31" d="M 794 531 
L 1825 531 
L 1825 4091 
L 703 3866 
L 703 4441 
L 1819 4666 
L 2450 4666 
L 2450 531 
L 3481 531 
L 3481 0 
L 794 0 
L 794 531 
z
" transform="scale(0.015625)"/>
      <path id="DejaVuSans-29" d="M 513 4856 
L 1013 4856 
Q 1481 4119 1714 3412 
Q 1947 2706 1947 2009 
Q 1947 1309 1714 600 
Q 1481 -109 1013 -844 
L 513 -844 
Q 928 -128 1133 580 
Q 1338 1288 1338 2009 
Q 1338 2731 1133 3434 
Q 928 4138 513 4856 
z
" transform="scale(0.015625)"/>
     </defs>
     <use xlink:href="#DejaVuSans-64"/>
     <use xlink:href="#DejaVuSans-72" x="63.476562"/>
     <use xlink:href="#DejaVuSans-69" x="104.589844"/>
     <use xlink:href="#DejaVuSans-76" x="132.373047"/>
     <use xlink:href="#DejaVuSans-65" x="191.552734"/>
     <use xlink:href="#DejaVuSans-28" x="253.076172"/>
     <use xlink:href="#DejaVuSans-32" x="292.089844"/>
     <use xlink:href="#DejaVuSans-30" x="355.712891"/>
     <use xlink:href="#DejaVuSans-31" x="419.335938"/>
     <use xlink:href="#DejaVuSans-31" x="482.958984"/>
     <use xlink:href="#DejaVuSans-29" x="546.582031"/>
    </g>
   </g>
   <g id="text_9">
    <!-- truque de mestre -->
    <g transform="translate(216.681832 163.597882) scale(0.06 -0.06)">
     <defs>
      <path id="DejaVuSans-71" d="M 947 1747 
Q 947 1113 1208 752 
Q 1469 391 1925 391 
Q 2381 391 2643 752 
Q 2906 1113 2906 1747 
Q 2906 2381 2643 2742 
Q 2381 3103 1925 3103 
Q 1469 3103 1208 2742 
Q 947 2381 947 1747 
z
M 2906 525 
Q 2725 213 2448 61 
Q 2172 -91 1784 -91 
Q 1150 -91 751 415 
Q 353 922 353 1747 
Q 353 2572 751 3078 
Q 1150 3584 1784 3584 
Q 2172 3584 2448 3432 
Q 2725 3281 2906 2969 
L 2906 3500 
L 3481 3500 
L 3481 -1331 
L 2906 -1331 
L 2906 525 
z
" transform="scale(0.015625)"/>
      <path id="DejaVuSans-20" transform="scale(0.015625)"/>
     </defs>
     <use xlink:href="#DejaVuSans-74"/>
     <use xlink:href="#DejaVuSans-72" x="39.208984"/>
     <use xlink:href="#DejaVuSans-75" x="80.322266"/>
     <use xlink:href="#DejaVuSans-71" x="143.701172"/>
     <use xlink:href="#DejaVuSans-75" x="207.177734"/>
     <use xlink:href="#DejaVuSans-65" x="270.556641"/>
     <use xlink:href="#DejaVuSans-20" x="332.080078"/>
     <use xlink:href="#DejaVuSans-64" x="363.867188"/>
     <use xlink:href="#DejaVuSans-65" x="427.34375"/>
     <use xlink:href="#DejaVuSans-20" x="488.867188"/>
     <use xlink:href="#DejaVuSans-6d" x="520.654297"/>
     <use xlink:href="#DejaVuSans-65" x="618.066406"/>
     <use xlink:href="#DejaVuSans-73" x="679.589844"/>
     <use xlink:href="#DejaVuSans-74" x="731.689453"/>
     <use xlink:href="#DejaVuSans-72" x="770.898438"/>
     <use xlink:href="#DejaVuSans-65" x="809.761719"/>
    </g>
   </g>
   <g id="text_10">
    <!-- vingadores -->
    <g transform="translate(238.042671 197.030603) scale(0.06 -0.06)">
     <use xlink:href="#DejaVuSans-76"/>
     <use xlink:href="#DejaVuSans-69" x="59.179688"/>
     <use xlink:href="#DejaVuSans-6e" x="86.962891"/>
     <use xlink:href="#DejaVuSans-67" x="150.341797"/>
     <use xlink:href="#DejaVuSans-61" x="213.818359"/>
     <use xlink:href="#DejaVuSans-64" x="275.097656"/>
     <use xlink:href="#DejaVuSans-6f" x="338.574219"/>
     <use xlink:href="#DejaVuSans-72" x="399.755859"/>
     <use xlink:href="#DejaVuSans-65" x="438.619141"/>
     <use xlink:href="#DejaVuSans-73" x="500.142578"/>
    </g>
   </g>
   <g id="text_11">
    <!-- morbius -->
    <g transform="translate(290.27914 140.501786) scale(0.06 -0.06)">
     <defs>
      <path id="DejaVuSans-62" d="M 3116 1747 
Q 3116 2381 2855 2742 
Q 2594 3103 2138 3103 
Q 1681 3103 1420 2742 
Q 1159 2381 1159 1747 
Q 1159 1113 1420 752 
Q 1681 391 2138 391 
Q 2594 391 2855 752 
Q 3116 1113 3116 1747 
z
M 1159 2969 
Q 1341 3281 1617 3432 
Q 1894 3584 2278 3584 
Q 2916 3584 3314 3078 
Q 3713 2572 3713 1747 
Q 3713 922 3314 415 
Q 2916 -91 2278 -91 
Q 1894 -91 1617 61 
Q 1341 213 1159 525 
L 1159 0 
L 581 0 
L 581 4863 
L 1159 4863 
L 1159 2969 
z
" transform="scale(0.015625)"/>
     </defs>
     <use xlink:href="#DejaVuSans-6d"/>
     <use xlink:href="#DejaVuSans-6f" x="97.412109"/>
     <use xlink:href="#DejaVuSans-72" x="158.59375"/>
     <use xlink:href="#DejaVuSans-62" x="199.707031"/>
     <use xlink:href="#DejaVuSans-69" x="263.183594"/>
     <use xlink:href="#DejaVuSans-75" x="290.966797"/>
     <use xlink:href="#DejaVuSans-73" x="354.345703"/>
    </g>
   </g>
   <g id="text_12">
    <!-- trem-bala -->
    <g transform="translate(252.830752 130.289084) scale(0.06 -0.06)">
     <defs>
      <path id="DejaVuSans-2d" d="M 313 2009 
L 1997 2009 
L 1997 1497 
L 313 1497 
L 313 2009 
z
" transform="scale(0.015625)"/>
      <path id="DejaVuSans-6c" d="M 603 4863 
L 1178 4863 
L 1178 0 
L 603 0 
L 603 4863 
z
" transform="scale(0.015625)"/>
     </defs>
     <use xlink:href="#DejaVuSans-74"/>
     <use xlink:href="#DejaVuSans-72" x="39.208984"/>
     <use xlink:href="#DejaVuSans-65" x="78.072266"/>
     <use xlink:href="#DejaVuSans-6d" x="139.595703"/>
     <use xlink:href="#DejaVuSans-2d" x="237.007812"/>
     <use xlink:href="#DejaVuSans-62" x="273.091797"/>
     <use xlink:href="#DejaVuSans-61" x="336.568359"/>
     <use xlink:href="#DejaVuSans-6c" x="397.847656"/>
     <use xlink:href="#DejaVuSans-61" x="425.630859"/>
    </g>
   </g>
   <g id="text_13">
    <!-- se beber nao case -->
    <g transform="translate(346.796008 390.256333) scale(0.06 -0.06)">
     <use xlink:href="#DejaVuSans-73"/>
     <use xlink:href="#DejaVuSans-65" x="52.099609"/>
     <use xlink:href="#DejaVuSans-20" x="113.623047"/>
     <use xlink:href="#DejaVuSans-62" x="145.410156"/>
     <use xlink:href="#DejaVuSans-65" x="208.886719"/>
     <use xlink:href="#DejaVuSans-62" x="270.410156"/>
     <use xlink:href="#DejaVuSans-65" x="333.886719"/>
     <use xlink:href="#DejaVuSans-72" x="395.410156"/>
     <use xlink:href="#DejaVuSans-20" x="436.523438"/>
     <use xlink:href="#DejaVuSans-6e" x="468.310547"/>
     <use xlink:href="#DejaVuSans-61" x="531.689453"/>
     <use xlink:href="#DejaVuSans-6f" x="592.96875"/>
     <use xlink:href="#DejaVuSans-20" x="654.150391"/>
     <use xlink:href="#DejaVuSans-63" x="685.9375"/>
     <use xlink:href="#DejaVuSans-61" x="740.917969"/>
     <use xlink:href="#DejaVuSans-73" x="802.197266"/>
     <use xlink:href="#DejaVuSans-65" x="854.296875"/>
    </g>
   </g>
   <g id="text_14">
    <!-- minions -->
    <g transform="translate(341.16172 417.608373) scale(0.06 -0.06)">
     <use xlink:href="#DejaVuSans-6d"/>
     <use xlink:href="#DejaVuSans-69" x="97.412109"/>
     <use xlink:href="#DejaVuSans-6e" x="125.195312"/>
     <use xlink:href="#DejaVuSans-69" x="188.574219"/>
     <use xlink:href="#DejaVuSans-6f" x="216.357422"/>
     <use xlink:href="#DejaVuSans-6e" x="277.539062"/>
     <use xlink:href="#DejaVuSans-73" x="340.917969"/>
    </g>
   </g>
   <g id="text_15">
    <!-- meu malvado favorito 2 -->
    <g transform="translate(246.491927 392.371566) scale(0.06 -0.06)">
     <use xlink:href="#DejaVuSans-6d"/>
     <use xlink:href="#DejaVuSans-65" x="97.412109"/>
     <use xlink:href="#DejaVuSans-75" x="158.935547"/>
     <use xlink:href="#DejaVuSans-20" x="222.314453"/>
     <use xlink:href="#DejaVuSans-6d" x="254.101562"/>
     <use xlink:href="#DejaVuSans-61" x="351.513672"/>
     <use xlink:href="#DejaVuSans-6c" x="412.792969"/>
     <use xlink:href="#DejaVuSans-76" x="440.576172"/>
     <use xlink:href="#DejaVuSans-61" x="499.755859"/>
     <use xlink:href="#DejaVuSans-64" x="561.035156"/>
     <use xlink:href="#DejaVuSans-6f" x="624.511719"/>
     <use xlink:href="#DejaVuSans-20" x="685.693359"/>
     <use xlink:href="#DejaVuSans-66" x="717.480469"/>
     <use xlink:href="#DejaVuSans-61" x="752.685547"/>
     <use xlink:href="#DejaVuSans-76" x="813.964844"/>
     <use xlink:href="#DejaVuSans-6f" x="873.144531"/>
     <use xlink:href="#DejaVuSans-72" x="934.326172"/>
     <use xlink:href="#DejaVuSans-69" x="975.439453"/>
     <use xlink:href="#DejaVuSans-74" x="1003.222656"/>
     <use xlink:href="#DejaVuSans-6f" x="1042.431641"/>
     <use xlink:href="#DejaVuSans-20" x="1103.613281"/>
     <use xlink:href="#DejaVuSans-32" x="1135.400391"/>
    </g>
   </g>
   <g id="text_16">
    <!-- luck -->
    <g transform="translate(311.349433 405.805132) scale(0.06 -0.06)">
     <defs>
      <path id="DejaVuSans-6b" d="M 581 4863 
L 1159 4863 
L 1159 1991 
L 2875 3500 
L 3609 3500 
L 1753 1863 
L 3688 0 
L 2938 0 
L 1159 1709 
L 1159 0 
L 581 0 
L 581 4863 
z
" transform="scale(0.015625)"/>
     </defs>
     <use xlink:href="#DejaVuSans-6c"/>
     <use xlink:href="#DejaVuSans-75" x="27.783203"/>
     <use xlink:href="#DejaVuSans-63" x="91.162109"/>
     <use xlink:href="#DejaVuSans-6b" x="146.142578"/>
    </g>
   </g>
   <g id="text_17">
    <!-- cidade perdida -->
    <g transform="translate(261.746838 357.570343) scale(0.06 -0.06)">
     <use xlink:href="#DejaVuSans-63"/>
     <use xlink:href="#DejaVuSans-69" x="54.980469"/>
     <use xlink:href="#DejaVuSans-64" x="82.763672"/>
     <use xlink:href="#DejaVuSans-61" x="146.240234"/>
     <use xlink:href="#DejaVuSans-64" x="207.519531"/>
     <use xlink:href="#DejaVuSans-65" x="270.996094"/>
     <use xlink:href="#DejaVuSans-20" x="332.519531"/>
     <use xlink:href="#DejaVuSans-70" x="364.306641"/>
     <use xlink:href="#DejaVuSans-65" x="427.783203"/>
     <use xlink:href="#DejaVuSans-72" x="489.306641"/>
     <use xlink:href="#DejaVuSans-64" x="528.669922"/>
     <use xlink:href="#DejaVuSans-69" x="592.146484"/>
     <use xlink:href="#DejaVuSans-64" x="619.929688"/>
     <use xlink:href="#DejaVuSans-61" x="683.40625"/>
    </g>
   </g>
   <g id="text_18">
    <!-- jogos mortais -->
    <g transform="translate(215.730015 257.707434) scale(0.06 -0.06)">
     <defs>
      <path id="DejaVuSans-6a" d="M 603 3500 
L 1178 3500 
L 1178 -63 
Q 1178 -731 923 -1031 
Q 669 -1331 103 -1331 
L -116 -1331 
L -116 -844 
L 38 -844 
Q 366 -844 484 -692 
Q 603 -541 603 -63 
L 603 3500 
z
M 603 4863 
L 1178 4863 
L 1178 4134 
L 603 4134 
L 603 4863 
z
" transform="scale(0.015625)"/>
     </defs>
     <use xlink:href="#DejaVuSans-6a"/>
     <use xlink:href="#DejaVuSans-6f" x="27.783203"/>
     <use xlink:href="#DejaVuSans-67" x="88.964844"/>
     <use xlink:href="#DejaVuSans-6f" x="152.441406"/>
     <use xlink:href="#DejaVuSans-73" x="213.623047"/>
     <use xlink:href="#DejaVuSans-20" x="265.722656"/>
     <use xlink:href="#DejaVuSans-6d" x="297.509766"/>
     <use xlink:href="#DejaVuSans-6f" x="394.921875"/>
     <use xlink:href="#DejaVuSans-72" x="456.103516"/>
     <use xlink:href="#DejaVuSans-74" x="497.216797"/>
     <use xlink:href="#DejaVuSans-61" x="536.425781"/>
     <use xlink:href="#DejaVuSans-69" x="597.705078"/>
     <use xlink:href="#DejaVuSans-73" x="625.488281"/>
    </g>
   </g>
   <g id="text_19">
    <!-- a freira -->
    <g transform="translate(245.608927 329.775039) scale(0.06 -0.06)">
     <use xlink:href="#DejaVuSans-61"/>
     <use xlink:href="#DejaVuSans-20" x="61.279297"/>
     <use xlink:href="#DejaVuSans-66" x="93.066406"/>
     <use xlink:href="#DejaVuSans-72" x="128.271484"/>
     <use xlink:href="#DejaVuSans-65" x="167.134766"/>
     <use xlink:href="#DejaVuSans-69" x="228.658203"/>
     <use xlink:href="#DejaVuSans-72" x="256.441406"/>
     <use xlink:href="#DejaVuSans-61" x="297.554688"/>
    </g>
   </g>
   <g id="text_20">
    <!-- invocacao do mal -->
    <g transform="translate(181.427823 282.520831) scale(0.06 -0.06)">
     <use xlink:href="#DejaVuSans-69"/>
     <use xlink:href="#DejaVuSans-6e" x="27.783203"/>
     <use xlink:href="#DejaVuSans-76" x="91.162109"/>
     <use xlink:href="#DejaVuSans-6f" x="150.341797"/>
     <use xlink:href="#DejaVuSans-63" x="211.523438"/>
     <use xlink:href="#DejaVuSans-61" x="266.503906"/>
     <use xlink:href="#DejaVuSans-63" x="327.783203"/>
     <use xlink:href="#DejaVuSans-61" x="382.763672"/>
     <use xlink:href="#DejaVuSans-6f" x="444.042969"/>
     <use xlink:href="#DejaVuSans-20" x="505.224609"/>
     <use xlink:href="#DejaVuSans-64" x="537.011719"/>
     <use xlink:href="#DejaVuSans-6f" x="600.488281"/>
     <use xlink:href="#DejaVuSans-20" x="661.669922"/>
     <use xlink:href="#DejaVuSans-6d" x="693.457031"/>
     <use xlink:href="#DejaVuSans-61" x="790.869141"/>
     <use xlink:href="#DejaVuSans-6c" x="852.148438"/>
    </g>
   </g>
   <g id="text_21">
    <!-- a avo -->
    <g transform="translate(215.177244 320.690385) scale(0.06 -0.06)">
     <use xlink:href="#DejaVuSans-61"/>
     <use xlink:href="#DejaVuSans-20" x="61.279297"/>
     <use xlink:href="#DejaVuSans-61" x="93.066406"/>
     <use xlink:href="#DejaVuSans-76" x="154.345703"/>
     <use xlink:href="#DejaVuSans-6f" x="213.525391"/>
    </g>
   </g>
   <g id="text_22">
    <!-- tempo -->
    <g transform="translate(211.132056 228.488713) scale(0.06 -0.06)">
     <use xlink:href="#DejaVuSans-74"/>
     <use xlink:href="#DejaVuSans-65" x="39.208984"/>
     <use xlink:href="#DejaVuSans-6d" x="100.732422"/>
     <use xlink:href="#DejaVuSans-70" x="198.144531"/>
     <use xlink:href="#DejaVuSans-6f" x="261.621094"/>
    </g>
   </g>
   <g id="text_23">
    <!-- se7en -->
    <g transform="translate(490.511499 352.796211) scale(0.06 -0.06)">
     <defs>
      <path id="DejaVuSans-37" d="M 525 4666 
L 3525 4666 
L 3525 4397 
L 1831 0 
L 1172 0 
L 2766 4134 
L 525 4134 
L 525 4666 
z
" transform="scale(0.015625)"/>
     </defs>
     <use xlink:href="#DejaVuSans-73"/>
     <use xlink:href="#DejaVuSans-65" x="52.099609"/>
     <use xlink:href="#DejaVuSans-37" x="113.623047"/>
     <use xlink:href="#DejaVuSans-65" x="177.246094"/>
     <use xlink:href="#DejaVuSans-6e" x="238.769531"/>
    </g>
   </g>
   <g id="text_24">
    <!-- aguas profundas -->
    <g transform="translate(387.961251 383.073037) scale(0.06 -0.06)">
     <use xlink:href="#DejaVuSans-61"/>
     <use xlink:href="#DejaVuSans-67" x="61.279297"/>
     <use xlink:href="#DejaVuSans-75" x="124.755859"/>
     <use xlink:href="#DejaVuSans-61" x="188.134766"/>
     <use xlink:href="#DejaVuSans-73" x="249.414062"/>
     <use xlink:href="#DejaVuSans-20" x="301.513672"/>
     <use xlink:href="#DejaVuSans-70" x="333.300781"/>
     <use xlink:href="#DejaVuSans-72" x="396.777344"/>
     <use xlink:href="#DejaVuSans-6f" x="435.640625"/>
     <use xlink:href="#DejaVuSans-66" x="496.822266"/>
     <use xlink:href="#DejaVuSans-75" x="532.027344"/>
     <use xlink:href="#DejaVuSans-6e" x="595.40625"/>
     <use xlink:href="#DejaVuSans-64" x="658.785156"/>
     <use xlink:href="#DejaVuSans-61" x="722.261719"/>
     <use xlink:href="#DejaVuSans-73" x="783.541016"/>
    </g>
   </g>
   <g id="text_25">
    <!-- o telefone preto -->
    <g transform="translate(447.557975 377.588701) scale(0.06 -0.06)">
     <use xlink:href="#DejaVuSans-6f"/>
     <use xlink:href="#DejaVuSans-20" x="61.181641"/>
     <use xlink:href="#DejaVuSans-74" x="92.96875"/>
     <use xlink:href="#DejaVuSans-65" x="132.177734"/>
     <use xlink:href="#DejaVuSans-6c" x="193.701172"/>
     <use xlink:href="#DejaVuSans-65" x="221.484375"/>
     <use xlink:href="#DejaVuSans-66" x="283.007812"/>
     <use xlink:href="#DejaVuSans-6f" x="318.212891"/>
     <use xlink:href="#DejaVuSans-6e" x="379.394531"/>
     <use xlink:href="#DejaVuSans-65" x="442.773438"/>
     <use xlink:href="#DejaVuSans-20" x="504.296875"/>
     <use xlink:href="#DejaVuSans-70" x="536.083984"/>
     <use xlink:href="#DejaVuSans-72" x="599.560547"/>
     <use xlink:href="#DejaVuSans-65" x="638.423828"/>
     <use xlink:href="#DejaVuSans-74" x="699.947266"/>
     <use xlink:href="#DejaVuSans-6f" x="739.15625"/>
    </g>
   </g>
   <g id="text_26">
    <!-- a fera -->
    <g transform="translate(477.557789 320.71216) scale(0.06 -0.06)">
     <use xlink:href="#DejaVuSans-61"/>
     <use xlink:href="#DejaVuSans-20" x="61.279297"/>
     <use xlink:href="#DejaVuSans-66" x="93.066406"/>
     <use xlink:href="#DejaVuSans-65" x="128.271484"/>
     <use xlink:href="#DejaVuSans-72" x="189.794922"/>
     <use xlink:href="#DejaVuSans-61" x="230.908203"/>
    </g>
   </g>
   <g id="text_27">
    <!-- voce pertence a mim -->
    <g transform="translate(410.731285 401.234518) scale(0.06 -0.06)">
     <use xlink:href="#DejaVuSans-76"/>
     <use xlink:href="#DejaVuSans-6f" x="59.179688"/>
     <use xlink:href="#DejaVuSans-63" x="120.361328"/>
     <use xlink:href="#DejaVuSans-65" x="175.341797"/>
     <use xlink:href="#DejaVuSans-20" x="236.865234"/>
     <use xlink:href="#DejaVuSans-70" x="268.652344"/>
     <use xlink:href="#DejaVuSans-65" x="332.128906"/>
     <use xlink:href="#DejaVuSans-72" x="393.652344"/>
     <use xlink:href="#DejaVuSans-74" x="434.765625"/>
     <use xlink:href="#DejaVuSans-65" x="473.974609"/>
     <use xlink:href="#DejaVuSans-6e" x="535.498047"/>
     <use xlink:href="#DejaVuSans-63" x="598.876953"/>
     <use xlink:href="#DejaVuSans-65" x="653.857422"/>
     <use xlink:href="#DejaVuSans-20" x="715.380859"/>
     <use xlink:href="#DejaVuSans-61" x="747.167969"/>
     <use xlink:href="#DejaVuSans-20" x="808.447266"/>
     <use xlink:href="#DejaVuSans-6d" x="840.234375"/>
     <use xlink:href="#DejaVuSans-69" x="937.646484"/>
     <use xlink:href="#DejaVuSans-6d" x="965.429688"/>
    </g>
   </g>
   <g id="text_28">
    <!-- interstellar -->
    <g transform="translate(500.375199 193.406774) scale(0.06 -0.06)">
     <use xlink:href="#DejaVuSans-69"/>
     <use xlink:href="#DejaVuSans-6e" x="27.783203"/>
     <use xlink:href="#DejaVuSans-74" x="91.162109"/>
     <use xlink:href="#DejaVuSans-65" x="130.371094"/>
     <use xlink:href="#DejaVuSans-72" x="191.894531"/>
     <use xlink:href="#DejaVuSans-73" x="233.007812"/>
     <use xlink:href="#DejaVuSans-74" x="285.107422"/>
     <use xlink:href="#DejaVuSans-65" x="324.316406"/>
     <use xlink:href="#DejaVuSans-6c" x="385.839844"/>
     <use xlink:href="#DejaVuSans-6c" x="413.623047"/>
     <use xlink:href="#DejaVuSans-61" x="441.40625"/>
     <use xlink:href="#DejaVuSans-72" x="502.685547"/>
    </g>
   </g>
   <g id="text_29">
    <!-- matrix -->
    <g transform="translate(472.514381 188.783259) scale(0.06 -0.06)">
     <defs>
      <path id="DejaVuSans-78" d="M 3513 3500 
L 2247 1797 
L 3578 0 
L 2900 0 
L 1881 1375 
L 863 0 
L 184 0 
L 1544 1831 
L 300 3500 
L 978 3500 
L 1906 2253 
L 2834 3500 
L 3513 3500 
z
" transform="scale(0.015625)"/>
     </defs>
     <use xlink:href="#DejaVuSans-6d"/>
     <use xlink:href="#DejaVuSans-61" x="97.412109"/>
     <use xlink:href="#DejaVuSans-74" x="158.691406"/>
     <use xlink:href="#DejaVuSans-72" x="197.900391"/>
     <use xlink:href="#DejaVuSans-69" x="239.013672"/>
     <use xlink:href="#DejaVuSans-78" x="266.796875"/>
    </g>
   </g>
   <g id="text_30">
    <!-- inception -->
    <g transform="translate(516.29249 266.925417) scale(0.06 -0.06)">
     <use xlink:href="#DejaVuSans-69"/>
     <use xlink:href="#DejaVuSans-6e" x="27.783203"/>
     <use xlink:href="#DejaVuSans-63" x="91.162109"/>
     <use xlink:href="#DejaVuSans-65" x="146.142578"/>
     <use xlink:href="#DejaVuSans-70" x="207.666016"/>
     <use xlink:href="#DejaVuSans-74" x="271.142578"/>
     <use xlink:href="#DejaVuSans-69" x="310.351562"/>
     <use xlink:href="#DejaVuSans-6f" x="338.134766"/>
     <use xlink:href="#DejaVuSans-6e" x="399.316406"/>
    </g>
   </g>
   <g id="text_31">
    <!-- a origem -->
    <g transform="translate(510.767031 230.050217) scale(0.06 -0.06)">
     <use xlink:href="#DejaVuSans-61"/>
     <use xlink:href="#DejaVuSans-20" x="61.279297"/>
     <use xlink:href="#DejaVuSans-6f" x="93.066406"/>
     <use xlink:href="#DejaVuSans-72" x="154.248047"/>
     <use xlink:href="#DejaVuSans-69" x="195.361328"/>
     <use xlink:href="#DejaVuSans-67" x="223.144531"/>
     <use xlink:href="#DejaVuSans-65" x="286.621094"/>
     <use xlink:href="#DejaVuSans-6d" x="348.144531"/>
    </g>
   </g>
   <g id="text_32">
    <!-- perdido em marte -->
    <g transform="translate(472.607471 283.543374) scale(0.06 -0.06)">
     <use xlink:href="#DejaVuSans-70"/>
     <use xlink:href="#DejaVuSans-65" x="63.476562"/>
     <use xlink:href="#DejaVuSans-72" x="125"/>
     <use xlink:href="#DejaVuSans-64" x="164.363281"/>
     <use xlink:href="#DejaVuSans-69" x="227.839844"/>
     <use xlink:href="#DejaVuSans-64" x="255.623047"/>
     <use xlink:href="#DejaVuSans-6f" x="319.099609"/>
     <use xlink:href="#DejaVuSans-20" x="380.28125"/>
     <use xlink:href="#DejaVuSans-65" x="412.068359"/>
     <use xlink:href="#DejaVuSans-6d" x="473.591797"/>
     <use xlink:href="#DejaVuSans-20" x="571.003906"/>
     <use xlink:href="#DejaVuSans-6d" x="602.791016"/>
     <use xlink:href="#DejaVuSans-61" x="700.203125"/>
     <use xlink:href="#DejaVuSans-72" x="761.482422"/>
     <use xlink:href="#DejaVuSans-74" x="802.595703"/>
     <use xlink:href="#DejaVuSans-65" x="841.804688"/>
    </g>
   </g>
   <g id="text_33">
    <!-- o melhor de mim -->
    <g transform="translate(431.683294 124.169903) scale(0.06 -0.06)">
     <defs>
      <path id="DejaVuSans-68" d="M 3513 2113 
L 3513 0 
L 2938 0 
L 2938 2094 
Q 2938 2591 2744 2837 
Q 2550 3084 2163 3084 
Q 1697 3084 1428 2787 
Q 1159 2491 1159 1978 
L 1159 0 
L 581 0 
L 581 4863 
L 1159 4863 
L 1159 2956 
Q 1366 3272 1645 3428 
Q 1925 3584 2291 3584 
Q 2894 3584 3203 3211 
Q 3513 2838 3513 2113 
z
" transform="scale(0.015625)"/>
     </defs>
     <use xlink:href="#DejaVuSans-6f"/>
     <use xlink:href="#DejaVuSans-20" x="61.181641"/>
     <use xlink:href="#DejaVuSans-6d" x="92.96875"/>
     <use xlink:href="#DejaVuSans-65" x="190.380859"/>
     <use xlink:href="#DejaVuSans-6c" x="251.904297"/>
     <use xlink:href="#DejaVuSans-68" x="279.6875"/>
     <use xlink:href="#DejaVuSans-6f" x="343.066406"/>
     <use xlink:href="#DejaVuSans-72" x="404.248047"/>
     <use xlink:href="#DejaVuSans-20" x="445.361328"/>
     <use xlink:href="#DejaVuSans-64" x="477.148438"/>
     <use xlink:href="#DejaVuSans-65" x="540.625"/>
     <use xlink:href="#DejaVuSans-20" x="602.148438"/>
     <use xlink:href="#DejaVuSans-6d" x="633.935547"/>
     <use xlink:href="#DejaVuSans-69" x="731.347656"/>
     <use xlink:href="#DejaVuSans-6d" x="759.130859"/>
    </g>
   </g>
   <g id="text_34">
    <!-- diario de uma paixao -->
    <g transform="translate(390.741671 110.699696) scale(0.06 -0.06)">
     <use xlink:href="#DejaVuSans-64"/>
     <use xlink:href="#DejaVuSans-69" x="63.476562"/>
     <use xlink:href="#DejaVuSans-61" x="91.259766"/>
     <use xlink:href="#DejaVuSans-72" x="152.539062"/>
     <use xlink:href="#DejaVuSans-69" x="193.652344"/>
     <use xlink:href="#DejaVuSans-6f" x="221.435547"/>
     <use xlink:href="#DejaVuSans-20" x="282.617188"/>
     <use xlink:href="#DejaVuSans-64" x="314.404297"/>
     <use xlink:href="#DejaVuSans-65" x="377.880859"/>
     <use xlink:href="#DejaVuSans-20" x="439.404297"/>
     <use xlink:href="#DejaVuSans-75" x="471.191406"/>
     <use xlink:href="#DejaVuSans-6d" x="534.570312"/>
     <use xlink:href="#DejaVuSans-61" x="631.982422"/>
     <use xlink:href="#DejaVuSans-20" x="693.261719"/>
     <use xlink:href="#DejaVuSans-70" x="725.048828"/>
     <use xlink:href="#DejaVuSans-61" x="788.525391"/>
     <use xlink:href="#DejaVuSans-69" x="849.804688"/>
     <use xlink:href="#DejaVuSans-78" x="877.587891"/>
     <use xlink:href="#DejaVuSans-61" x="936.767578"/>
     <use xlink:href="#DejaVuSans-6f" x="998.046875"/>
    </g>
   </g>
   <g id="text_35">
    <!-- 365 dias -->
    <g transform="translate(353.093841 129.023274) scale(0.06 -0.06)">
     <defs>
      <path id="DejaVuSans-33" d="M 2597 2516 
Q 3050 2419 3304 2112 
Q 3559 1806 3559 1356 
Q 3559 666 3084 287 
Q 2609 -91 1734 -91 
Q 1441 -91 1130 -33 
Q 819 25 488 141 
L 488 750 
Q 750 597 1062 519 
Q 1375 441 1716 441 
Q 2309 441 2620 675 
Q 2931 909 2931 1356 
Q 2931 1769 2642 2001 
Q 2353 2234 1838 2234 
L 1294 2234 
L 1294 2753 
L 1863 2753 
Q 2328 2753 2575 2939 
Q 2822 3125 2822 3475 
Q 2822 3834 2567 4026 
Q 2313 4219 1838 4219 
Q 1578 4219 1281 4162 
Q 984 4106 628 3988 
L 628 4550 
Q 988 4650 1302 4700 
Q 1616 4750 1894 4750 
Q 2613 4750 3031 4423 
Q 3450 4097 3450 3541 
Q 3450 3153 3228 2886 
Q 3006 2619 2597 2516 
z
" transform="scale(0.015625)"/>
      <path id="DejaVuSans-36" d="M 2113 2584 
Q 1688 2584 1439 2293 
Q 1191 2003 1191 1497 
Q 1191 994 1439 701 
Q 1688 409 2113 409 
Q 2538 409 2786 701 
Q 3034 994 3034 1497 
Q 3034 2003 2786 2293 
Q 2538 2584 2113 2584 
z
M 3366 4563 
L 3366 3988 
Q 3128 4100 2886 4159 
Q 2644 4219 2406 4219 
Q 1781 4219 1451 3797 
Q 1122 3375 1075 2522 
Q 1259 2794 1537 2939 
Q 1816 3084 2150 3084 
Q 2853 3084 3261 2657 
Q 3669 2231 3669 1497 
Q 3669 778 3244 343 
Q 2819 -91 2113 -91 
Q 1303 -91 875 529 
Q 447 1150 447 2328 
Q 447 3434 972 4092 
Q 1497 4750 2381 4750 
Q 2619 4750 2861 4703 
Q 3103 4656 3366 4563 
z
" transform="scale(0.015625)"/>
      <path id="DejaVuSans-35" d="M 691 4666 
L 3169 4666 
L 3169 4134 
L 1269 4134 
L 1269 2991 
Q 1406 3038 1543 3061 
Q 1681 3084 1819 3084 
Q 2600 3084 3056 2656 
Q 3513 2228 3513 1497 
Q 3513 744 3044 326 
Q 2575 -91 1722 -91 
Q 1428 -91 1123 -41 
Q 819 9 494 109 
L 494 744 
Q 775 591 1075 516 
Q 1375 441 1709 441 
Q 2250 441 2565 725 
Q 2881 1009 2881 1497 
Q 2881 1984 2565 2268 
Q 2250 2553 1709 2553 
Q 1456 2553 1204 2497 
Q 953 2441 691 2322 
L 691 4666 
z
" transform="scale(0.015625)"/>
     </defs>
     <use xlink:href="#DejaVuSans-33"/>
     <use xlink:href="#DejaVuSans-36" x="63.623047"/>
     <use xlink:href="#DejaVuSans-35" x="127.246094"/>
     <use xlink:href="#DejaVuSans-20" x="190.869141"/>
     <use xlink:href="#DejaVuSans-64" x="222.65625"/>
     <use xlink:href="#DejaVuSans-69" x="286.132812"/>
     <use xlink:href="#DejaVuSans-61" x="313.916016"/>
     <use xlink:href="#DejaVuSans-73" x="375.195312"/>
    </g>
   </g>
   <g id="text_36">
    <!-- atraves da minha janela -->
    <g transform="translate(350.525033 99.833277) scale(0.06 -0.06)">
     <use xlink:href="#DejaVuSans-61"/>
     <use xlink:href="#DejaVuSans-74" x="61.279297"/>
     <use xlink:href="#DejaVuSans-72" x="100.488281"/>
     <use xlink:href="#DejaVuSans-61" x="141.601562"/>
     <use xlink:href="#DejaVuSans-76" x="202.880859"/>
     <use xlink:href="#DejaVuSans-65" x="262.060547"/>
     <use xlink:href="#DejaVuSans-73" x="323.583984"/>
     <use xlink:href="#DejaVuSans-20" x="375.683594"/>
     <use xlink:href="#DejaVuSans-64" x="407.470703"/>
     <use xlink:href="#DejaVuSans-61" x="470.947266"/>
     <use xlink:href="#DejaVuSans-20" x="532.226562"/>
     <use xlink:href="#DejaVuSans-6d" x="564.013672"/>
     <use xlink:href="#DejaVuSans-69" x="661.425781"/>
     <use xlink:href="#DejaVuSans-6e" x="689.208984"/>
     <use xlink:href="#DejaVuSans-68" x="752.587891"/>
     <use xlink:href="#DejaVuSans-61" x="815.966797"/>
     <use xlink:href="#DejaVuSans-20" x="877.246094"/>
     <use xlink:href="#DejaVuSans-6a" x="909.033203"/>
     <use xlink:href="#DejaVuSans-61" x="936.816406"/>
     <use xlink:href="#DejaVuSans-6e" x="998.095703"/>
     <use xlink:href="#DejaVuSans-65" x="1061.474609"/>
     <use xlink:href="#DejaVuSans-6c" x="1122.998047"/>
     <use xlink:href="#DejaVuSans-61" x="1150.78125"/>
    </g>
   </g>
   <g id="text_37">
    <!-- espontanea -->
    <g transform="translate(439.3243 158.812159) scale(0.06 -0.06)">
     <use xlink:href="#DejaVuSans-65"/>
     <use xlink:href="#DejaVuSans-73" x="61.523438"/>
     <use xlink:href="#DejaVuSans-70" x="113.623047"/>
     <use xlink:href="#DejaVuSans-6f" x="177.099609"/>
     <use xlink:href="#DejaVuSans-6e" x="238.28125"/>
     <use xlink:href="#DejaVuSans-74" x="301.660156"/>
     <use xlink:href="#DejaVuSans-61" x="340.869141"/>
     <use xlink:href="#DejaVuSans-6e" x="402.148438"/>
     <use xlink:href="#DejaVuSans-65" x="465.527344"/>
     <use xlink:href="#DejaVuSans-61" x="527.050781"/>
    </g>
   </g>
  </g>
 </g>
 <defs>
  <clipPath id="p4d1f98cc57">
   <rect x="170.504961" y="61.0848" width="396.990078" height="391.9608"/>
  </clipPath>
 </defs>
</svg>
